<?xml version="1.0" encoding="utf-8"?>
<!-- Generator: Adobe Illustrator 15.1.0, SVG Export Plug-In . SVG Version: 6.00 Build 0)  -->
<!DOCTYPE svg PUBLIC "-//W3C//DTD SVG 1.1//EN" "http://www.w3.org/Graphics/SVG/1.1/DTD/svg11.dtd">
<svg version="1.1" xmlns="http://www.w3.org/2000/svg" xmlns:xlink="http://www.w3.org/1999/xlink" x="0px" y="0px" width="1280px"
	 height="1024px" viewBox="0 0 1280 1024" enable-background="new 0 0 1280 1024" xml:space="preserve">
<g id="Layer_2">
	<path fill="#FF0000" d="M587.758,332.484c0.677-0.334,1.354-0.67,2.035-0.997C589.111,331.814,588.435,332.15,587.758,332.484z"/>
	<path fill="#FF0000" d="M583.463,334.664c0.759-0.397,1.519-0.792,2.283-1.18C584.981,333.871,584.222,334.267,583.463,334.664z"/>
	<path fill="#FF0000" d="M757.826,329.457c0.537,0.241,1.07,0.489,1.604,0.734C758.896,329.945,758.363,329.698,757.826,329.457z"/>
	<path fill="#FF0000" d="M592.29,330.322c0.549-0.253,1.094-0.513,1.646-0.762C593.384,329.81,592.838,330.069,592.29,330.322z"/>
	<path fill="#FF0000" d="M571.338,341.551c0.945-0.582,1.898-1.152,2.854-1.719C573.235,340.398,572.283,340.969,571.338,341.551z"
		/>
	<path fill="#FF0000" d="M575.275,339.191c0.879-0.514,1.765-1.02,2.653-1.521C577.04,338.171,576.155,338.677,575.275,339.191z"/>
	<path fill="#FF0000" d="M579.315,336.895c0.82-0.454,1.644-0.903,2.471-1.346C580.959,335.991,580.136,336.441,579.315,336.895z"/>
	<path fill="#FF0000" d="M570.632,341.991c-1.049,0.652-2.095,1.309-3.132,1.979l0,0
		C568.539,343.303,569.583,342.643,570.632,341.991z"/>
	<path fill="#FF0000" d="M564.178,346.157c1.097-0.741,2.206-1.464,3.317-2.183C566.381,344.69,565.274,345.416,564.178,346.157z"/>
	<path fill="#FF0000" d="M493.667,429.692c4.674-10.336,10.2-20.205,16.49-29.515C503.867,409.488,498.341,419.356,493.667,429.692z
		"/>
	<path fill="#FF0000" d="M564.178,346.157c-10.641,7.188-20.551,15.374-29.6,24.422c-9.048,9.048-17.233,18.959-24.421,29.599
		c7.188-10.64,15.374-20.551,24.422-29.599S553.538,353.345,564.178,346.157z"/>
	<path fill="#FF0000" d="M871.937,471.693c-2.664-13.02-6.593-25.578-11.653-37.542s-11.252-23.333-18.44-33.973
		c-7.188-10.64-15.373-20.551-24.421-29.599c-9.049-9.048-18.959-17.233-29.6-24.422c-6.466-4.368-13.204-8.362-20.179-11.964
		C767.871,338.101,768,342.035,768,346c0,13.807-1.399,27.288-4.063,40.307s-6.593,25.578-11.653,37.542
		s-11.252,23.333-18.44,33.973c-7.188,10.64-15.373,20.551-24.421,29.599c-9.049,9.048-18.959,17.233-29.6,24.421
		c-6.785,4.584-13.869,8.758-21.212,12.496c-4.173,2.124-8.426,4.111-12.761,5.944c-11.964,5.061-24.523,8.989-37.542,11.653
		S581.807,546,568,546s-27.288-1.399-40.307-4.063s-25.578-6.593-37.542-11.653c-4.694-1.985-9.292-4.15-13.794-6.477
		c-0.109-1.875-0.192-3.756-0.253-5.644c-0.003-0.103-0.009-0.204-0.012-0.306C476.033,515.912,476,513.959,476,512
		c0,13.807,1.399,27.287,4.063,40.307s6.593,25.578,11.653,37.543c5.061,11.963,11.251,23.332,18.44,33.973
		c7.188,10.64,15.374,20.551,24.421,29.6c9.049,9.048,18.959,17.232,29.6,24.421c10.64,7.188,22.009,13.38,33.973,18.44
		s24.522,8.989,37.542,11.653C648.713,710.601,662.193,712,676,712s27.287-1.399,40.308-4.063
		c13.02-2.664,25.578-6.593,37.542-11.653s23.333-11.252,33.973-18.44c10.641-7.188,20.551-15.373,29.6-24.421
		c9.048-9.049,17.232-18.96,24.421-29.6c7.188-10.641,13.38-22.01,18.44-33.973c5.061-11.965,8.989-24.523,11.653-37.543
		S876,525.807,876,512C876,498.193,874.601,484.712,871.937,471.693z"/>
	<path fill="#F7931E" d="M476.104,518.163c0.061,1.888,0.144,3.769,0.253,5.644c4.502,2.326,9.101,4.491,13.794,6.477
		c11.964,5.061,24.522,8.989,37.542,11.653S554.193,546,568,546s27.288-1.399,40.307-4.063s25.579-6.593,37.542-11.653
		c4.335-1.833,8.588-3.82,12.761-5.944c0.248-4.082,0.39-8.193,0.39-12.339c0-13.807-1.399-27.288-4.063-40.307
		s-6.593-25.578-11.653-37.542s-11.252-23.333-18.44-33.973c-7.188-10.64-15.374-20.551-24.422-29.599s-18.959-17.233-29.599-24.422
		c-1.098-0.742-2.209-1.466-3.322-2.187c-0.001,0.001-0.003,0.002-0.005,0.003c-1.111,0.719-2.22,1.442-3.317,2.183
		c-10.64,7.188-20.551,15.374-29.599,24.422s-17.233,18.959-24.422,29.599c-6.29,9.31-11.816,19.178-16.49,29.515
		c-0.667,1.477-1.317,2.963-1.95,4.458c-5.06,11.964-8.989,24.522-11.653,37.542S476,498.193,476,512
		c0,1.959,0.033,3.912,0.092,5.857C476.095,517.959,476.1,518.061,476.104,518.163z"/>
	<path fill="#FF0000" d="M765.353,333.036c0.763,0.382,1.526,0.762,2.283,1.153C766.879,333.797,766.115,333.417,765.353,333.036z"
		/>
	<path fill="#FF0000" d="M635.693,316.063c9.765-1.998,19.789-3.285,30.015-3.803C655.481,312.779,645.458,314.065,635.693,316.063
		c-13.02,2.664-25.579,6.593-37.542,11.653c-0.051,0.021-0.101,0.045-0.152,0.066c0.051-0.021,0.101-0.045,0.152-0.066
		C610.115,322.657,622.673,318.728,635.693,316.063z"/>
	<path fill="#FF0000" d="M761.663,331.234c0.677,0.322,1.353,0.646,2.025,0.975C763.016,331.88,762.341,331.556,761.663,331.234z"/>
	<path fill="#C69C6D" d="M767.644,334.192c-0.003-0.001-0.005-0.002-0.008-0.004c-0.757-0.391-1.521-0.771-2.283-1.153
		c-0.554-0.277-1.107-0.555-1.664-0.827c-0.673-0.329-1.349-0.653-2.025-0.975c-0.741-0.352-1.486-0.7-2.233-1.043
		c-0.533-0.246-1.066-0.493-1.604-0.734c-1.318-0.592-2.643-1.175-3.977-1.74c-11.964-5.06-24.522-8.989-37.542-11.653
		C703.287,313.399,689.807,312,676,312c-3.451,0-6.883,0.087-10.292,0.26c-10.227,0.519-20.25,1.805-30.015,3.803
		c-13.02,2.664-25.578,6.593-37.542,11.653c-0.051,0.021-0.101,0.045-0.152,0.066c-1.362,0.578-2.716,1.171-4.063,1.777
		c-0.552,0.249-1.097,0.508-1.646,0.762c-0.834,0.385-1.669,0.77-2.497,1.166c-0.682,0.327-1.358,0.663-2.035,0.997
		c-0.672,0.331-1.344,0.661-2.012,1c-0.764,0.388-1.524,0.783-2.283,1.18c-0.56,0.293-1.12,0.586-1.677,0.885
		c-0.827,0.443-1.65,0.892-2.471,1.346c-0.464,0.257-0.926,0.516-1.387,0.776c-0.888,0.501-1.773,1.006-2.653,1.521
		c-0.363,0.212-0.723,0.427-1.084,0.641c-0.956,0.566-1.909,1.137-2.854,1.719c-0.236,0.145-0.47,0.294-0.706,0.44
		c-1.049,0.652-2.095,1.309-3.132,1.979c1.113,0.72,2.224,1.445,3.322,2.187c10.64,7.188,20.551,15.374,29.599,24.422
		s17.233,18.959,24.422,29.599c7.188,10.64,13.379,22.009,18.44,33.973s8.989,24.522,11.653,37.542S659,498.193,659,512
		c0,4.146-0.142,8.257-0.39,12.339c7.343-3.738,14.427-7.912,21.212-12.496c10.641-7.188,20.551-15.373,29.6-24.421
		c9.048-9.048,17.232-18.959,24.421-29.599c7.188-10.64,13.38-22.009,18.44-33.973s8.989-24.522,11.653-37.542S768,359.807,768,346
		C768,342.035,767.871,338.101,767.644,334.192z"/>
</g>
<g id="Layer_1">
	<path opacity="0.53" fill="#FF0000" d="M476,512c0,1.961,0.036,3.914,0.092,5.861C476.033,515.915,476,513.961,476,512z"/>
	<path opacity="0.53" fill="#FF0000" d="M476.356,523.807c-0.11-1.885-0.194-3.775-0.254-5.673
		C476.16,520.031,476.247,521.922,476.356,523.807L476.356,523.807z"/>
	<path opacity="0.53" fill="#FF0000" d="M635.693,316.063c13.02-2.664,26.5-4.063,40.307-4.063s27.287,1.399,40.308,4.063
		c13.02,2.664,25.578,6.593,37.542,11.653c4.693,1.985,9.292,4.15,13.794,6.476c-0.564-9.7-1.808-19.219-3.707-28.5
		c-2.664-13.02-6.593-25.578-11.653-37.542s-11.252-23.333-18.44-33.973c-7.188-10.64-15.373-20.551-24.421-29.599
		c-9.049-9.048-18.959-17.233-29.6-24.422c-10.64-7.188-22.009-13.379-33.973-18.44c-11.964-5.06-24.523-8.989-37.542-11.653
		S581.807,146,568,146s-27.288,1.399-40.307,4.063s-25.578,6.593-37.542,11.653c-11.964,5.061-23.333,11.252-33.973,18.44
		c-10.64,7.188-20.551,15.374-29.599,24.422s-17.233,18.959-24.422,29.599c-7.188,10.64-13.379,22.009-18.44,33.973
		c-5.06,11.964-8.989,24.522-11.653,37.542c-1.864,9.111-3.094,18.452-3.673,27.968c4.172-2.124,8.426-4.111,12.761-5.944
		c11.964-5.06,24.522-8.989,37.542-11.653S445.193,312,459,312s27.288,1.399,40.307,4.063s25.578,6.593,37.542,11.653
		c10.729,4.538,20.975,9.993,30.651,16.253c9.676-6.26,19.922-11.715,30.651-16.253
		C610.115,322.657,622.673,318.728,635.693,316.063z"/>
	<path opacity="0.53" fill="#FFFF00" d="M476.056,518.134c-0.002-0.091-0.056-0.182-0.056-0.272c0-0.002,0-0.003,0-0.004
		c0-1.946-0.046-3.897-0.046-5.857c0-13.807,1.422-27.288,4.086-40.307s6.605-25.578,11.665-37.542
		c5.061-11.964,11.258-23.333,18.446-33.973c7.188-10.64,15.376-20.551,24.425-29.599s18.961-17.233,29.601-24.422
		c1.098-0.742,2.209-1.466,3.323-2.187c-9.676-6.26-19.921-11.715-30.65-16.253c-11.964-5.06-24.522-8.989-37.542-11.653
		S472.807,312,459,312s-27.288,1.399-40.307,4.063s-25.578,6.593-37.542,11.653c-4.334,1.833-8.588,3.82-12.761,5.944
		c-0.249,4.083-0.39,8.194-0.39,12.339c0,13.807,1.399,27.288,4.063,40.307s6.593,25.578,11.653,37.542
		c5.061,11.964,11.252,23.333,18.44,33.973c7.188,10.64,15.374,20.551,24.422,29.599s18.959,17.233,29.599,24.421
		c6.466,4.368,13.205,8.362,20.179,11.964c-0.109-1.875-0.219-3.755-0.276-5.644C476.08,518.153,476.057,518.144,476.056,518.134z"
		/>
	<path opacity="0.53" fill="#FFFF00" d="M476,512c0,1.96,0.036,3.911,0.092,5.857C476.036,515.911,476,513.959,476,512z"/>
	<path opacity="0.53" fill="#FFFF00" d="M476.104,518.163c0.057,1.889,0.144,3.769,0.253,5.644l0,0
		C476.247,521.932,476.161,520.051,476.104,518.163z"/>
	<path opacity="0.53" fill="#FF0000" d="M476.092,517.861c0.003,0.091,0.008,0.182,0.01,0.272c0,0.01,0.001,0.02,0.001,0.029
		c-0.003-0.103-0.009-0.204-0.012-0.306C476.092,517.858,476.092,517.859,476.092,517.861z"/>
	<path opacity="0.53" fill="#FF0000" d="M476.102,518.134c-0.002-0.091-0.007-0.182-0.01-0.272
		C476.095,517.952,476.1,518.043,476.102,518.134z"/>
	<path opacity="0.53" fill="#FF0000" d="M567.5,343.97L567.5,343.97c-1.113,0.72-2.224,1.445-3.322,2.187
		C565.276,345.415,566.387,344.69,567.5,343.97z"/>
</g>
<g id="Layer_1_copy" display="none">
	<path display="inline" opacity="0.53" fill="#FF0000" d="M476,512c0,1.961,0.036,3.914,0.092,5.861
		C476.033,515.915,476,513.961,476,512z"/>
	<path display="inline" opacity="0.53" fill="#FF0000" d="M476.356,523.807c-0.11-1.885-0.194-3.775-0.254-5.673
		C476.16,520.031,476.247,521.922,476.356,523.807L476.356,523.807z"/>
	<path display="inline" opacity="0.53" fill="#FF0000" d="M763.937,305.693c-2.664-13.02-6.593-25.578-11.653-37.542
		s-11.252-23.333-18.44-33.973c-7.188-10.64-15.373-20.551-24.421-29.599c-9.049-9.048-18.959-17.233-29.6-24.422
		c-10.64-7.188-22.009-13.379-33.973-18.44c-11.964-5.06-24.523-8.989-37.542-11.653S581.807,146,568,146
		s-27.288,1.399-40.307,4.063s-25.578,6.593-37.542,11.653c-11.964,5.061-23.333,11.252-33.973,18.44
		c-10.64,7.188-20.551,15.374-29.599,24.422s-17.233,18.959-24.422,29.599c-7.188,10.64-13.379,22.009-18.44,33.973
		c-5.06,11.964-8.989,24.522-11.653,37.542c-1.864,9.111-3.094,18.452-3.673,27.968c4.172-2.124,8.426-4.111,12.761-5.944
		c11.964-5.06,24.522-8.989,37.542-11.653S445.193,312,459,312s27.288,1.399,40.307,4.063s25.578,6.593,37.542,11.653
		c10.729,4.538,20.975,9.993,30.651,16.253c9.676-6.26,19.922-11.715,30.651-16.253c11.964-5.06,24.522-8.989,37.542-11.653
		c13.02-2.664,26.5-4.063,40.307-4.063s27.287,1.399,40.308,4.063c13.02,2.664,25.578,6.593,37.542,11.653
		c4.693,1.985,9.292,4.15,13.794,6.476C767.079,324.492,765.836,314.974,763.937,305.693z"/>
	<path display="inline" opacity="0.53" fill="#FFFF00" d="M476.056,518.134c-0.002-0.091-0.056-0.182-0.056-0.272
		c0-0.002,0-0.003,0-0.004c0-1.946-0.046-3.897-0.046-5.857c0-13.807,1.422-27.288,4.086-40.307s6.605-25.578,11.665-37.542
		c5.061-11.964,11.258-23.333,18.446-33.973c7.188-10.64,15.376-20.551,24.425-29.599s18.961-17.233,29.601-24.422
		c1.098-0.742,2.209-1.466,3.323-2.187c-9.676-6.26-19.921-11.715-30.65-16.253c-11.964-5.06-24.522-8.989-37.542-11.653
		S472.807,312,459,312s-27.288,1.399-40.307,4.063s-25.578,6.593-37.542,11.653c-4.334,1.833-8.588,3.82-12.761,5.944
		c-0.249,4.083-0.39,8.194-0.39,12.339c0,13.807,1.399,27.288,4.063,40.307s6.593,25.578,11.653,37.542
		c5.061,11.964,11.252,23.333,18.44,33.973c7.188,10.64,15.374,20.551,24.422,29.599s18.959,17.233,29.599,24.421
		c6.466,4.368,13.205,8.362,20.179,11.964c-0.109-1.875-0.219-3.755-0.276-5.644C476.08,518.153,476.057,518.144,476.056,518.134z"
		/>
	<path display="inline" opacity="0.53" fill="#FFFF00" d="M476,512c0,1.96,0.036,3.911,0.092,5.857
		C476.036,515.911,476,513.959,476,512z"/>
	<path display="inline" opacity="0.53" fill="#FFFF00" d="M476.104,518.163c0.057,1.889,0.144,3.769,0.253,5.644l0,0
		C476.247,521.932,476.161,520.051,476.104,518.163z"/>
	<path display="inline" opacity="0.53" fill="#FF0000" d="M476.092,517.861c0.003,0.091,0.008,0.182,0.01,0.272
		c0,0.01,0.001,0.02,0.001,0.029c-0.003-0.103-0.009-0.204-0.012-0.306C476.092,517.858,476.092,517.859,476.092,517.861z"/>
	<path display="inline" opacity="0.53" fill="#00FFFF" d="M767.644,334.192c-4.502-2.325-9.101-4.49-13.794-6.476
		c-11.964-5.06-24.522-8.989-37.542-11.653C703.287,313.399,689.807,312,676,312s-27.287,1.399-40.307,4.063
		c-13.02,2.664-25.578,6.593-37.542,11.653c-10.729,4.538-20.975,9.993-30.651,16.253c1.113,0.72,2.224,1.445,3.322,2.187
		c10.64,7.188,20.551,15.374,29.599,24.422s17.233,18.959,24.422,29.599c7.188,10.64,13.379,22.009,18.44,33.973
		s8.989,24.522,11.653,37.542S659,498.193,659,512c0,4.146-0.142,8.257-0.39,12.339c7.343-3.738,14.427-7.912,21.212-12.496
		c10.641-7.188,20.551-15.373,29.6-24.421c9.048-9.048,17.232-18.959,24.421-29.599c7.188-10.64,13.38-22.009,18.44-33.973
		s8.989-24.522,11.653-37.542S768,359.807,768,346C768,342.035,767.871,338.101,767.644,334.192z"/>
	<path display="inline" opacity="0.53" fill="#E6E6E6" d="M654.937,471.693c-2.664-13.02-6.593-25.578-11.653-37.542
		s-11.252-23.333-18.44-33.973c-7.188-10.64-15.374-20.551-24.422-29.599s-18.959-17.233-29.599-24.422
		c-1.098-0.742-2.209-1.466-3.322-2.187c-1.113,0.72-2.224,1.445-3.322,2.187c-10.64,7.188-20.551,15.374-29.599,24.422
		s-17.233,18.959-24.422,29.599c-7.188,10.64-13.379,22.009-18.44,33.973c-5.06,11.964-8.989,24.522-11.653,37.542
		S476,498.193,476,512c0,1.959,0.033,3.912,0.092,5.857c0.003,0.102,0.008,0.203,0.012,0.306c0.061,1.888,0.144,3.769,0.253,5.644
		c4.502,2.326,9.101,4.491,13.794,6.477c11.964,5.061,24.522,8.989,37.542,11.653S554.193,546,568,546s27.288-1.399,40.307-4.063
		s25.579-6.593,37.542-11.653c4.335-1.833,8.588-3.82,12.761-5.944c0.248-4.082,0.39-8.193,0.39-12.339
		C659,498.193,657.601,484.712,654.937,471.693z"/>
	<path display="inline" opacity="0.53" fill="#FF0000" d="M476.102,518.134c-0.002-0.091-0.007-0.182-0.01-0.272
		C476.095,517.952,476.1,518.043,476.102,518.134z"/>
	<path display="inline" opacity="0.53" fill="#FF0000" d="M567.5,343.97L567.5,343.97c-1.113,0.72-2.224,1.445-3.322,2.187
		C565.276,345.415,566.387,344.69,567.5,343.97z"/>
</g>
<g id="Layer_3">
</g>
</svg>
