<svg version="1.1" xmlns="http://www.w3.org/2000/svg" xmlns:xlink="http://www.w3.org/1999/xlink" xmlns:a="http://ns.adobe.com/AdobeSVGViewerExtensions/3.0/" x="0px" y="0px" width="1280px" height="1024px" viewBox="-259 -146 1280 1024" overflow="visible" enable-background="new -259 -146 1280 1024" xml:space="preserve"> <defs> </defs> <path fill="#FF0000" d="M328.7578125,186.484375c0.6772461-0.3339844,1.3535156-0.6699219,2.0351562-0.996582 C330.1108398,185.8139648,329.4350586,186.1503906,328.7578125,186.484375z"/> <path fill="#FF0000" d="M324.4628906,188.6640625c0.7587891-0.3969727,1.5185547-0.7924805,2.2827148-1.1801758 C325.980957,187.8710938,325.2216797,188.2670898,324.4628906,188.6640625z"/> <path fill="#FF0000" d="M498.8261719,183.456543c0.5371094,0.2412109,1.0703125,0.4887695,1.6035156,0.734375 C499.8955078,183.9453125,499.3632812,183.6977539,498.8261719,183.456543z"/> <path fill="#FF0000" d="M333.2895508,184.3222656c0.5488281-0.253418,1.0942383-0.5126953,1.6459961-0.7617188 C334.3837891,183.8095703,333.8383789,184.0688477,333.2895508,184.3222656z"/> <path fill="#FF0000" d="M312.3378906,195.5507812c0.9448242-0.5820312,1.8979492-1.1523438,2.8535156-1.71875 C314.2353516,194.3984375,313.2827148,194.96875,312.3378906,195.5507812z"/> <path fill="#FF0000" d="M316.2753906,193.190918c0.8793945-0.5141602,1.7646484-1.0195312,2.652832-1.5205078 C318.0400391,192.1708984,317.1552734,192.6772461,316.2753906,193.190918z"/> <path fill="#FF0000" d="M320.3154297,190.8945312c0.8203125-0.4541016,1.6435547-0.902832,2.4707031-1.3457031 C321.9589844,189.9912109,321.1357422,190.440918,320.3154297,190.8945312z"/> <path fill="#FF0000" d="M311.6318359,195.9912109c-1.0493164,0.6518555-2.0952148,1.3085938-3.1318359,1.9790039l0,0 C309.5385742,197.3027344,310.5825195,196.6430664,311.6318359,195.9912109z"/> <path fill="#FF0000" d="M305.1777344,200.1567383c1.0966797-0.7407227,2.2055664-1.4638672,3.3168945-2.1831055 C307.3808594,198.6899414,306.2739258,199.4160156,305.1777344,200.1567383z"/> <path fill="#FF0000" d="M239.9316406,272.9384766c-0.5195312,0.9863281-1.0351562,1.9741211-1.5380859,2.9697266 c-0.0004883,0.0009766-0.0009766,0.0019531-0.0014648,0.0029297c0.5063477-1.0019531,1.0253906-1.996582,1.5483398-2.9887695 C239.9375,272.9277344,239.9345703,272.9331055,239.9316406,272.9384766z"/> <path fill="#FF0000" d="M244.1337891,265.3598633c0.0019531-0.003418,0.0039062-0.0068359,0.0058594-0.0102539 c-0.4980469,0.8535156-0.9887695,1.7119141-1.4746094,2.5732422c0.0029297-0.0043945,0.0053711-0.0087891,0.0078125-0.0131836 C243.1542969,267.0561523,243.640625,266.2055664,244.1337891,265.3598633z"/> <path fill="#FF0000" d="M241.965332,269.1743164c-0.4951172,0.8935547-0.9858398,1.7900391-1.4672852,2.6918945 c0.484375-0.90625,0.9770508-1.8071289,1.4746094-2.7045898 C241.9702148,269.1660156,241.9677734,269.1699219,241.965332,269.1743164z"/> <path fill="#FF0000" d="M240.4897461,271.8813477c-0.0019531,0.003418-0.0039062,0.0073242-0.0058594,0.0107422 c0.0043945-0.0087891,0.0092773-0.0170898,0.0141602-0.0258789 C240.4951172,271.8710938,240.4926758,271.8764648,240.4897461,271.8813477z"/> <path fill="#FF0000" d="M246.4130859,261.5478516c-0.362793,0.5908203-0.7167969,1.1870117-1.0722656,1.7822266 c0.3569336-0.5976562,0.7128906-1.1967773,1.0771484-1.7900391 C246.4160156,261.5424805,246.4145508,261.5449219,246.4130859,261.5478516z"/> <path fill="#FF0000" d="M245.3408203,263.3300781c-0.1376953,0.2314453-0.2783203,0.4599609-0.4155273,0.6914062 c0.0039062-0.0063477,0.0073242-0.0126953,0.0112305-0.0185547 C245.0703125,263.777832,245.2070312,263.5551758,245.3408203,263.3300781z"/> <path fill="#FF0000" d="M238.1210938,276.4560547c-0.5629883,1.1220703-1.1196289,2.2480469-1.6616211,3.3823242 c0.543457-1.137207,1.1015625-2.2661133,1.6660156-3.3911133 C238.1240234,276.4501953,238.1225586,276.453125,238.1210938,276.4560547z"/> <path fill="#FF0000" d="M249.3540039,256.9072266c-0.0097656,0.0151367-0.0195312,0.0302734-0.0292969,0.0449219 c0.6049805-0.9287109,1.2119141-1.8564453,1.8320312-2.7744141 C250.5463867,255.0810547,249.949707,255.9936523,249.3540039,256.9072266z"/> <path fill="#FF0000" d="M248.7954102,257.7558594c-0.5224609,0.8105469-1.0322266,1.6298828-1.543457,2.4477539 c-0.0053711,0.0092773-0.0112305,0.0180664-0.0166016,0.0268555c0.5175781-0.8286133,1.0336914-1.6582031,1.5629883-2.4790039 C248.7973633,257.7529297,248.7963867,257.7543945,248.7954102,257.7558594z"/> <path fill="#FF0000" d="M247.2353516,260.2304688c0.0053711-0.0087891,0.0112305-0.0175781,0.0166016-0.0268555 c-0.2797852,0.4482422-0.5625,0.894043-0.8388672,1.3442383c0.0014648-0.0029297,0.0029297-0.0053711,0.0048828-0.0078125 C246.6870117,261.1010742,246.9628906,260.6669922,247.2353516,260.2304688z"/> <polygon fill="#FF0000" points="238.3920898,275.9106445 238.3920898,275.9111328 238.3935547,275.9082031 "/> <path fill="#FF0000" d="M238.3251953,276.0449219c-0.0678711,0.137207-0.1357422,0.2744141-0.2041016,0.4111328 c0.0014648-0.0029297,0.0029297-0.0058594,0.0043945-0.0087891 C238.1923828,276.3134766,238.2587891,276.1791992,238.3251953,276.0449219z"/> <path fill="#FF0000" d="M238.3920898,275.9106445c-0.0224609,0.0449219-0.0444336,0.0898438-0.0668945,0.1342773 c0.0224609-0.0444336,0.0444336-0.0893555,0.0668945-0.1337891 C238.3920898,275.9111328,238.3920898,275.9111328,238.3920898,275.9106445z"/> <path fill="#FF0000" d="M249.324707,256.9521484c0.0097656-0.0146484,0.0195312-0.0297852,0.0292969-0.0449219 c-0.1850586,0.2841797-0.375,0.5639648-0.5585938,0.8486328c0.0009766-0.0014648,0.0019531-0.0029297,0.0029297-0.0043945 C248.9711914,257.4833984,249.1503906,257.2197266,249.324707,256.9521484z"/> <path fill="#FF0000" d="M240.2666016,272.3041992c-0.1118164,0.2114258-0.2236328,0.4228516-0.3349609,0.6342773 c0.0029297-0.0053711,0.0058594-0.0107422,0.0087891-0.0161133 C240.0488281,272.7163086,240.1577148,272.5102539,240.2666016,272.3041992z"/> <path fill="#FF0000" d="M240.4838867,271.8920898c-0.0732422,0.1367188-0.1450195,0.2749023-0.2172852,0.4121094 c0.0742188-0.1411133,0.1479492-0.2822266,0.2231445-0.4228516 C240.487793,271.8847656,240.4858398,271.8886719,240.4838867,271.8920898z"/> <path fill="#FF0000" d="M244.925293,264.0214844c-0.2626953,0.4418945-0.5263672,0.8837891-0.7856445,1.328125 c-0.0019531,0.003418-0.0039062,0.0068359-0.0058594,0.0102539c0.2651367-0.4541016,0.5341797-0.9052734,0.8027344-1.3569336 C244.9326172,264.0087891,244.9291992,264.0151367,244.925293,264.0214844z"/> <path fill="#FF0000" d="M242.2055664,268.7446289c-0.0795898,0.1430664-0.1606445,0.2861328-0.2402344,0.4296875 c0.0024414-0.0043945,0.0048828-0.0083008,0.0073242-0.0126953 C242.0498047,269.0224609,242.1279297,268.8837891,242.2055664,268.7446289z"/> <path fill="#FF0000" d="M242.6650391,267.9228516c-0.1538086,0.2734375-0.3066406,0.5478516-0.4594727,0.8217773 c0.1557617-0.2783203,0.3105469-0.5571289,0.4672852-0.8349609 C242.6704102,267.9140625,242.6679688,267.918457,242.6650391,267.9228516z"/> <path fill="#FF0000" d="M305.1777344,200.1567383c-10.640625,7.1884766-20.5507812,15.3735352-29.5996094,24.421875 c-9.0478516,9.0483398-17.2333984,18.9594727-24.4213867,29.5991211 c7.1884766-10.6396484,15.3735352-20.5507812,24.421875-29.5991211S294.5380859,207.3452148,305.1777344,200.1567383z"/> <path fill="#00FF00" d="M612.9365234,325.6928711c-2.6640625-13.0195312-6.5927734-25.578125-11.6533203-37.5419922 s-11.2519531-23.3330078-18.4404297-33.9731445c-7.1884766-10.6396484-15.3730469-20.5507812-24.4208984-29.5991211 c-9.0488281-9.0483398-18.9589844-17.2333984-29.5996094-24.421875 c-6.4658203-4.3681641-13.2041016-8.3623047-20.1787109-11.9643555C508.8710938,192.1005859,509,196.0351562,509,200 c0,13.8071289-1.3994141,27.2875977-4.0634766,40.3071289s-6.5927734,25.578125-11.6533203,37.5419922 s-11.2519531,23.3330078-18.4404297,33.9731445c-7.1884766,10.6396484-15.3730469,20.5507812-24.4208984,29.5991211 c-9.0488281,9.0483398-18.9589844,17.2333984-29.5996094,24.4213867 c-6.7851562,4.5839844-13.8691406,8.7578125-21.2119141,12.4960938c-4.1728516,2.1240234-8.4257812,4.1113281-12.7607422,5.9443359 c-11.9638672,5.0605469-24.5229492,8.9892578-37.5424805,11.6533203S322.8071289,400,309,400 s-27.2875977-1.3994141-40.3071289-4.0634766s-25.578125-6.5927734-37.5419922-11.6533203 c-4.6938477-1.9853516-9.2919922-4.1503906-13.7944336-6.4765625c0.5649414,9.7001953,1.8081055,19.21875,3.7070312,28.5 c2.6640625,13.0195312,6.5932617,25.578125,11.6533203,37.5429688 c5.0605469,11.9628906,11.2514648,23.3320312,18.4399414,33.9726562 c7.1879883,10.6396484,15.3735352,20.5507812,24.4213867,29.5996094 c9.0488281,9.0478516,18.9589844,17.2324219,29.5996094,24.4208984 c10.6396484,7.1884766,22.0087891,13.3798828,33.9726562,18.4404297s24.5224609,8.9892578,37.5419922,11.6533203 C389.7128906,564.6005859,403.1933594,566,417,566s27.2871094-1.3994141,40.3076172-4.0634766 c13.0195312-2.6640625,25.578125-6.5927734,37.5419922-11.6533203s23.3330078-11.2519531,33.9726562-18.4404297 c10.640625-7.1884766,20.5507812-15.3730469,29.5996094-24.4208984 c9.0478516-9.0488281,17.2324219-18.9599609,24.4208984-29.5996094 c7.1884766-10.640625,13.3798828-22.0097656,18.4404297-33.9726562 c5.0605469-11.9648438,8.9892578-24.5234375,11.6533203-37.5429688S617,379.8066406,617,366 C617,352.1928711,615.6005859,338.7124023,612.9365234,325.6928711z"/> <path fill="#FF0000" d="M217.2363281,375.6552734c0.0385742,0.7177734,0.078125,1.4355469,0.1201172,2.1513672 c-0.0961914-1.6523438-0.1645508-3.3105469-0.2226562-4.9716797 C217.1660156,373.7753906,217.1918945,374.7177734,217.2363281,375.6552734z"/> <path fill="#FF0000" d="M217.0869141,371.5566406C217.0336914,369.7109375,217,367.8583984,217,366 C217,367.859375,217.034668,369.7099609,217.0869141,371.5566406z"/> <path fill="#FF0000" d="M217.0917969,371.8574219c0.0029297,0.1015625,0.0083008,0.203125,0.0117188,0.3056641 c0.0073242,0.2246094,0.0224609,0.4472656,0.0302734,0.671875c-0.0146484-0.4267578-0.034668-0.8515625-0.046875-1.2783203 C217.0898438,371.6572266,217.0888672,371.7578125,217.0917969,371.8574219z"/> <path fill="#FF0000" d="M217.2363281,375.6552734c0.0341797,0.71875,0.078125,1.4345703,0.1201172,2.1513672l0,0 C217.3144531,377.0908203,217.2749023,376.3730469,217.2363281,375.6552734z"/> <path fill="#F7931E" d="M242.6650391,267.9228516c-0.2319336,0.4121094-0.4628906,0.824707-0.6923828,1.2387695 C242.2021484,268.7480469,242.4331055,268.3349609,242.6650391,267.9228516z"/> <path fill="#F7931E" d="M247.2353516,260.2304688c-0.2724609,0.4365234-0.5483398,0.8706055-0.8173828,1.3095703 C246.6870117,261.1010742,246.9628906,260.6669922,247.2353516,260.2304688z"/> <path fill="#F7931E" d="M249.324707,256.9521484c-0.1743164,0.2675781-0.3535156,0.53125-0.5263672,0.7993164 C248.9711914,257.4833984,249.1503906,257.2197266,249.324707,256.9521484z"/> <path fill="#F7931E" d="M240.4838867,271.8920898c-0.1826172,0.3422852-0.362793,0.6865234-0.543457,1.0302734 C240.1210938,272.5786133,240.3007812,272.234375,240.4838867,271.8920898z"/> <path fill="#F7931E" d="M244.925293,264.0214844c-0.2626953,0.4418945-0.5263672,0.8837891-0.7856445,1.328125 C244.3994141,264.9052734,244.6625977,264.4633789,244.925293,264.0214844z"/> <path fill="#F7931E" d="M238.3920898,275.9111328c-0.090332,0.1782227-0.1772461,0.3574219-0.2666016,0.5361328 C238.2148438,276.269043,238.3017578,276.0893555,238.3920898,275.9111328z"/> <path fill="#FF0000" d="M506.3525391,187.0356445c0.7626953,0.3823242,1.5263672,0.7617188,2.2832031,1.152832 C507.8789062,187.7973633,507.1152344,187.4174805,506.3525391,187.0356445z"/> <path fill="#FF0000" d="M376.6928711,170.0634766c9.7651367-1.9980469,19.7885742-3.284668,30.0151367-3.8032227 c-10.2265625,0.5185547-20.25,1.8051758-30.015625,3.8032227c-13.0195312,2.6640625-25.578125,6.5932617-37.5419922,11.6533203 c-0.0507812,0.0214844-0.1010742,0.0449219-0.1518555,0.0664062c0.0512695-0.0214844,0.1010742-0.0449219,0.1523438-0.0664062 C351.1147461,176.6567383,363.6733398,172.7275391,376.6928711,170.0634766z"/> <path fill="#FF0000" d="M502.6630859,185.2338867c0.6767578,0.3217773,1.3525391,0.6459961,2.0253906,0.9750977 C504.015625,185.8803711,503.3408203,185.5556641,502.6630859,185.2338867z"/> <path fill="#C69C6D" d="M450.421875,341.4213867c9.0478516-9.0483398,17.2324219-18.9594727,24.4208984-29.5991211 c7.1884766-10.6401367,13.3798828-22.0092773,18.4404297-33.9731445s8.9892578-24.5224609,11.6533203-37.5419922 S509,213.8071289,509,200c0-3.9648438-0.1289062-7.8994141-0.3564453-11.8076172 c-0.0029297-0.0009766-0.0048828-0.0024414-0.0078125-0.0039062c-0.7568359-0.3911133-1.5205078-0.7705078-2.2832031-1.152832 c-0.5537109-0.2768555-1.1074219-0.5546875-1.6640625-0.8266602c-0.6728516-0.3291016-1.3486328-0.6533203-2.0253906-0.9750977 c-0.7412109-0.3520508-1.4863281-0.699707-2.2333984-1.0429688c-0.5332031-0.2456055-1.0664062-0.4931641-1.6035156-0.734375 c-1.3183594-0.5922852-2.6425781-1.175293-3.9765625-1.7397461c-11.9638672-5.0600586-24.5224609-8.9892578-37.5419922-11.6533203 C444.2871094,167.3994141,430.8066406,166,417,166c-3.4511719,0-6.8828125,0.0874023-10.2919922,0.2602539 c-10.2265625,0.5185547-20.25,1.8051758-30.0151367,3.8032227c-13.0195312,2.6640625-25.578125,6.5932617-37.5419922,11.6533203 c-0.0512695,0.0214844-0.1010742,0.0449219-0.1523438,0.0664062c-1.3623047,0.5776367-2.7163086,1.1708984-4.0629883,1.7773438 c-0.5517578,0.2490234-1.097168,0.5083008-1.6459961,0.7617188c-0.8344727,0.3847656-1.6689453,0.7695312-2.496582,1.1655273 c-0.6816406,0.3266602-1.3579102,0.6625977-2.0351562,0.996582c-0.6723633,0.3310547-1.3442383,0.6611328-2.012207,0.9995117 c-0.7641602,0.3876953-1.5239258,0.7832031-2.2827148,1.1801758c-0.5600586,0.2929688-1.1196289,0.5864258-1.6767578,0.8847656 c-0.8271484,0.4428711-1.6503906,0.8916016-2.4707031,1.3457031c-0.4638672,0.2568359-0.9257812,0.515625-1.387207,0.7758789 c-0.8881836,0.5009766-1.7734375,1.0063477-2.652832,1.5205078c-0.362793,0.2119141-0.7231445,0.4272461-1.0839844,0.6411133 c-0.9555664,0.5664062-1.9086914,1.1367188-2.8535156,1.71875c-0.2363281,0.1450195-0.4702148,0.2939453-0.7060547,0.4404297 c-1.0493164,0.6518555-2.0952148,1.3085938-3.1318359,1.9790039c1.1132812,0.7202148,2.2241211,1.4448242,3.3222656,2.1865234 c10.6396484,7.1884766,20.5507812,15.3735352,29.5991211,24.421875s17.2333984,18.9594727,24.421875,29.5991211 c7.1879883,10.6401367,13.3793945,22.0092773,18.4399414,33.9731445s8.9892578,24.5224609,11.6533203,37.5419922 S400,352.1928711,400,366c0,4.1455078-0.1416016,8.2568359-0.3896484,12.3388672 c7.3427734-3.7382812,14.4267578-7.9121094,21.2119141-12.4960938 C431.4628906,358.6547852,441.3730469,350.4697266,450.421875,341.4213867z"/> <path fill="#FF0000" d="M294.1899414,189.5361328c0.8457031,0.453125,1.6879883,0.9121094,2.5263672,1.3764648 C295.8779297,190.4482422,295.0361328,189.9887695,294.1899414,189.5361328z"/> <path fill="#FF0000" d="M290.2363281,187.4750977c0.7822266,0.3964844,1.559082,0.8007812,2.3354492,1.2070312 C291.7954102,188.2763672,291.0185547,187.8710938,290.2363281,187.4750977z"/> <path fill="#FF0000" d="M116.8188477,184.0751953c0.4790039-0.2197266,0.9584961-0.4394531,1.4394531-0.6557617 C117.7768555,183.6352539,117.2978516,183.8554688,116.8188477,184.0751953z"/> <path fill="#FF0000" d="M286.1938477,185.4814453c0.7011719,0.3359375,1.3964844,0.6811523,2.0927734,1.0249023 C287.5898438,186.1630859,286.8950195,185.8168945,286.1938477,185.4814453z"/> <path fill="#FF0000" d="M298.0375977,191.6513672c0.9086914,0.512207,1.8149414,1.0297852,2.7148438,1.5561523 C299.8520508,192.6816406,298.9467773,192.1635742,298.0375977,191.6513672z"/> <path fill="#FF0000" d="M282.0556641,183.5566406c0.5737305,0.2587891,1.1411133,0.5283203,1.7119141,0.7919922 C283.1967773,184.0849609,282.6293945,183.8154297,282.0556641,183.5566406z"/> <path fill="#FF0000" d="M112.7324219,186c0.5595703-0.2724609,1.1230469-0.5371094,1.6855469-0.8041992 C113.8554688,185.4628906,113.2919922,185.7280273,112.7324219,186z"/> <path fill="#FF0000" d="M277.8486328,181.7167969c0.1020508,0.0429688,0.2026367,0.0893555,0.3046875,0.1328125 c-0.1015625-0.0429688-0.2016602-0.0898438-0.3037109-0.1328125c-11.9638672-5.0600586-24.5224609-8.9892578-37.5419922-11.6533203 c-2.8481445-0.5830078-5.722168-1.09375-8.6132812-1.5541992c2.890625,0.4604492,5.7646484,0.9711914,8.612793,1.5541992 C253.3266602,172.7275391,265.8847656,176.6567383,277.8486328,181.7167969z"/> <path fill="#FF0000" d="M159.6928711,170.0634766c2.8481445-0.5830078,5.722168-1.09375,8.612793-1.5541992 c-2.8911133,0.4604492-5.7651367,0.9711914-8.6132812,1.5541992c-13.0195312,2.6640625-25.578125,6.5932617-37.5419922,11.6533203 c-0.019043,0.0083008-0.0380859,0.0170898-0.0576172,0.0249023c0.0195312-0.0078125,0.0385742-0.0166016,0.0581055-0.0249023 C134.1147461,176.6567383,146.6733398,172.7275391,159.6928711,170.0634766z"/> <path fill="#FF0000" d="M301.7592773,193.8027344c0.9814453,0.581543,1.9604492,1.1674805,2.9311523,1.7651367 C303.7192383,194.9702148,302.7412109,194.3842773,301.7592773,193.8027344z"/> <path fill="#FF0000" d="M399.8837891,372.4980469c-0.0654297,1.9462891-0.1552734,3.8867188-0.2724609,5.8193359 C399.7285156,376.3847656,399.8212891,374.4453125,399.8837891,372.4980469z"/> <path fill="#FF0000" d="M251.1567383,254.1777344c7.1884766-10.6396484,15.3735352-20.5507812,24.421875-29.5991211 s18.9594727-17.2333984,29.5991211-24.421875c1.0966797-0.7407227,2.2055664-1.4638672,3.3168945-2.1831055 c0.0019531-0.0009766,0.0039062-0.0024414,0.0053711-0.003418c1.1132812,0.7202148,2.2241211,1.4448242,3.3222656,2.1865234 c-2.1474609-1.4506836-4.3320312-2.8491211-6.5375977-4.2177734c1.0771484,0.668457,2.1508789,1.3432617,3.2143555,2.03125 c-1.1132812,0.7202148-2.2246094,1.4448242-3.3227539,2.1865234c-10.6396484,7.1884766-20.5522461,15.3735352-29.6005859,24.421875 s-17.2363281,18.9594727-24.4248047,29.5991211c-0.6621094,0.9799805-1.3066406,1.9726562-1.9516602,2.9648438 c0.0419922-0.0634766,0.0839844-0.1264648,0.1254883-0.1904297 C249.9296875,256.0234375,250.5366211,255.0957031,251.1567383,254.1777344z"/> <path fill="#FF0000" d="M350.1674805,233.9179688c-2.8188477-3.2026367-5.7294922-6.3232422-8.7456055-9.3393555 c-9.0488281-9.0483398-18.9589844-17.2333984-29.5996094-24.421875 c10.6396484,7.1884766,20.5507812,15.3735352,29.5991211,24.421875 C344.4375,227.5947266,347.3481445,230.715332,350.1674805,233.9179688z"/> <path fill="#FF0000" d="M247.2407227,260.222168c0.5141602-0.8237305,1.027832-1.6484375,1.5537109-2.4643555 C248.2685547,258.5732422,247.7553711,259.3984375,247.2407227,260.222168z"/> <path fill="#FF0000" d="M399.9003906,372.0683594C399.9599609,370.0517578,400,368.03125,400,366 C400,368.03125,399.9638672,370.0527344,399.9003906,372.0683594z"/> <path fill="#FF0000" d="M242.6806641,267.8955078c0.4785156-0.8481445,0.9614258-1.6933594,1.4521484-2.5336914 C243.6420898,266.2021484,243.1591797,267.0473633,242.6806641,267.8955078z"/> <path fill="#FF0000" d="M246.4179688,261.5400391c-0.5039062,0.8208008-0.9975586,1.6474609-1.4897461,2.4765625 c0.7109375-1.1967773,1.434082-2.3852539,2.1694336-3.5654297 C246.8706055,260.8134766,246.6416016,261.1748047,246.4179688,261.5400391z"/> <path fill="#FF0000" d="M239.9404297,272.9223633c-0.5229492,0.9921875-1.0419922,1.9868164-1.5483398,2.9887695 c-0.0249023,0.0488281-0.0488281,0.0981445-0.0732422,0.1469727c0.6650391-1.3149414,1.3432617-2.621582,2.0351562-3.9199219 C240.2158203,272.3994141,240.078125,272.6606445,239.9404297,272.9223633z"/> <path fill="#FF0000" d="M238.2939453,276.1083984c0.0083008-0.0170898,0.0166016-0.0336914,0.0249023-0.050293 C238.3105469,276.074707,238.3027344,276.0917969,238.2939453,276.1083984z"/> <path fill="#FF0000" d="M238.1254883,276.4472656c-0.1401367,0.2792969-0.2739258,0.5625-0.4125977,0.8427734 c0.1953125-0.3930664,0.3833008-0.7900391,0.5810547-1.1816406 C238.2382812,276.2211914,238.1821289,276.3344727,238.1254883,276.4472656z"/> <path fill="#FF0000" d="M234.6669922,283.6923828c-0.3339844,0.7392578-0.6508789,1.487793-0.9765625,2.2319336 c0.4052734-0.9223633,0.8041992-1.8486328,1.2236328-2.7636719 C234.8330078,283.3383789,234.7475586,283.5141602,234.6669922,283.6923828z"/> <path fill="#FF0000" d="M234.9140625,283.1606445c0.1826172-0.4003906,0.3701172-0.7978516,0.5561523-1.1962891 C235.2841797,282.362793,235.0976562,282.7607422,234.9140625,283.1606445z"/> <path fill="#FF0000" d="M217.0917969,371.8574219C217.0327148,369.9121094,217,367.9589844,217,366 c0-13.8071289,1.3994141-27.2875977,4.0634766-40.3071289s6.5932617-25.578125,11.6533203-37.5419922 c0.315918-0.7470703,0.6494141-1.484375,0.9736328-2.2265625c-0.3261719,0.7431641-0.6689453,1.4780273-0.9853516,2.2265625 c-5.0595703,11.9638672-9.0004883,24.5224609-11.6645508,37.5419922s-4.0864258,26.5-4.0864258,40.3071289 c0,1.9599609,0.0458984,3.9111328,0.0458984,5.8574219c0,0.0009766,0,0.0019531,0,0.0039062 c0,0.0908203,0.0537109,0.1816406,0.0561523,0.2724609c0.0004883,0.0097656,0.0239258,0.0195312,0.0244141,0.0292969 c0.0571289,1.8886719,0.1665039,3.7685547,0.2758789,5.6435547c-0.109375-1.875-0.1923828-3.7558594-0.2529297-5.6435547 C217.1000977,372.0605469,217.0947266,371.9589844,217.0917969,371.8574219z"/> <path fill="#FF0000" d="M235.4702148,281.9643555c0.7314453-1.5668945,1.4741211-3.128418,2.2426758-4.6743164 C236.9453125,278.8369141,236.2006836,280.3964844,235.4702148,281.9643555z"/> <path fill="#FF0000" d="M241.9726562,269.1616211c-0.5014648,0.9042969-0.9980469,1.8120117-1.4858398,2.7250977 c0.5131836-0.9599609,1.0356445-1.9140625,1.5634766-2.8642578 C242.0244141,269.0688477,241.9985352,269.1152344,241.9726562,269.1616211z"/> <path fill="#FF0000" d="M109.3901367,187.6611328c0,0.0029297-0.0004883,0.0063477-0.0004883,0.0092773 c0.1069336-0.0541992,0.2114258-0.1132812,0.3183594-0.1674805 C109.6025391,187.5561523,109.4956055,187.6074219,109.3901367,187.6611328z"/> <path fill="#0000FF" d="M275.578125,507.421875c-9.0478516-9.0488281-17.2333984-18.9599609-24.4213867-29.5996094 c-7.1884766-10.640625-13.3793945-22.0097656-18.4399414-33.9726562 c-5.0600586-11.9648438-8.9892578-24.5234375-11.6533203-37.5429688c-1.8989258-9.28125-3.1420898-18.7998047-3.7070312-28.5 c-6.9741211-3.6015625-13.7128906-7.5957031-20.1787109-11.9638672 c-10.6396484-7.1879883-20.5507812-15.3730469-29.5991211-24.4213867s-17.2333984-18.9594727-24.421875-29.5991211 c-7.1879883-10.6401367-13.3793945-22.0092773-18.4399414-33.9731445 c-5.0600586-11.9638672-8.9892578-24.5224609-11.6533203-37.5419922S109,213.8071289,109,200 c0-4.1416016,0.1416016-8.25,0.3896484-12.3295898c-7.3413086,3.7373047-14.4282227,7.9038086-21.2119141,12.4863281 c-10.640625,7.1884766-20.5507812,15.3735352-29.5996094,24.421875 c-9.0478516,9.0483398-17.2333984,18.9594727-24.4213867,29.5991211 c-7.1884766,10.6401367-13.3793945,22.0092773-18.4399414,33.9731445 c-5.0600586,11.9638672-8.9892578,24.5224609-11.6533203,37.5419922S0,352.1928711,0,366 c0,13.8066406,1.3994141,27.2871094,4.0634766,40.3066406s6.5932617,25.578125,11.6533203,37.5429688 c5.0605469,11.9628906,11.2514648,23.3320312,18.4399414,33.9726562 c7.1879883,10.6396484,15.3735352,20.5507812,24.4213867,29.5996094 c9.0488281,9.0478516,18.9589844,17.2324219,29.5996094,24.4208984 c10.6396484,7.1884766,22.0087891,13.3798828,33.9726562,18.4404297s24.5224609,8.9892578,37.5419922,11.6533203 C172.7128906,564.6005859,186.1933594,566,200,566s27.2871094-1.3994141,40.3076172-4.0634766 c13.0195312-2.6640625,25.578125-6.5927734,37.5419922-11.6533203c10.7290039-4.5380859,20.9750977-9.9931641,30.6499023-16.2539062 c-1.1132812-0.7207031-2.2236328-1.4443359-3.3217773-2.1865234 C294.5371094,524.6542969,284.6269531,516.4697266,275.578125,507.421875z"/> <path fill="#FF0000" d="M305.1777344,531.8427734c1.0981445,0.7421875,2.2084961,1.4658203,3.3217773,2.1865234 c0.0004883,0,0.0004883,0,0.0004883,0C307.3867188,533.3095703,306.2758789,532.5849609,305.1777344,531.8427734z"/> <path fill="#00FFFF" d="M311.8222656,531.8427734c10.640625-7.1884766,20.5507812-15.3730469,29.5996094-24.4208984 c9.0478516-9.0488281,17.2324219-18.9599609,24.4208984-29.5996094 c7.1884766-10.640625,13.3798828-22.0097656,18.4404297-33.9726562 c5.0605469-11.9648438,8.9892578-24.5234375,11.6533203-37.5429688c1.8642578-9.1113281,3.09375-18.4511719,3.6738281-27.9677734 c-4.1728516,2.1240234-8.4257812,4.1113281-12.7607422,5.9443359c-11.9638672,5.0605469-24.5229492,8.9892578-37.5424805,11.6533203 S322.8071289,400,309,400s-27.2875977-1.3994141-40.3071289-4.0634766s-25.578125-6.5927734-37.5419922-11.6533203 c-4.6938477-1.9853516-9.2919922-4.1503906-13.7944336-6.4765625c0.5649414,9.7001953,1.8081055,19.21875,3.7070312,28.5 c2.6640625,13.0195312,6.5932617,25.578125,11.6533203,37.5429688 c5.0605469,11.9628906,11.2514648,23.3320312,18.4399414,33.9726562 c7.1879883,10.6396484,15.3735352,20.5507812,24.4213867,29.5996094 c9.0488281,9.0478516,18.9589844,17.2324219,29.5996094,24.4208984c1.0981445,0.7421875,2.2089844,1.4667969,3.3222656,2.1865234 C309.6132812,533.3095703,310.7241211,532.5849609,311.8222656,531.8427734z"/> <path fill="#00A99D" d="M268.6928711,395.9365234C281.7124023,398.6005859,295.1928711,400,309,400 s27.2875977-1.3994141,40.3071289-4.0634766s25.5786133-6.5927734,37.5424805-11.6533203 c2.0341797-0.8603516,4.0478516-1.7568359,6.046875-2.6835938c0.0039062-0.0019531,0.0078125-0.0029297,0.0107422-0.0048828 c0.9414062-0.4501953,1.9042969-0.9091797,2.8994141-1.3740234c0.0283203-0.0136719,0.0566406-0.0273438,0.0849609-0.0410156 c1.2460938-0.6025391,2.4873047-1.2138672,3.71875-1.8408203c0.1318359-0.0673828,0.2597656-0.1396484,0.390625-0.2060547 c0.0009766-1.8720703,0.0136719-3.75,0.0771484-5.6347656c0.0048828-0.1435547-0.0839844-0.2861328-0.0800781-0.4296875 c0.0625-2.015625,0.0507812-4.0371094,0.0507812-6.0683594c0-13.8071289-1.4238281-27.2875977-4.0878906-40.3071289 s-6.6054688-25.578125-11.6660156-37.5419922c-1.265625-2.9907227-2.6064453-5.9448242-4.0107422-8.859375 c-4.2138672-8.7436523-9.046875-17.1337891-14.4384766-25.1137695 c-4.7924805-7.0932617-10.0380859-13.8540039-15.6767578-20.2597656c-2.8193359-3.2026367-5.7304688-6.3232422-8.7470703-9.3393555 c-9.0478516-9.0483398-18.9594727-17.2333984-29.5991211-24.421875c-1.0981445-0.7416992-2.2094727-1.4663086-3.3227539-2.1865234 c-0.0014648,0.0009766-0.003418,0.0024414-0.0053711,0.003418c-1.1113281,0.7192383-2.2202148,1.4423828-3.3168945,2.1831055 c-10.6396484,7.1884766-20.5507812,15.3735352-29.5991211,24.421875s-17.2333984,18.9594727-24.421875,29.5991211 c-0.6201172,0.9179688-1.2270508,1.8457031-1.8320312,2.7744141c-0.0415039,0.0639648-0.0834961,0.1269531-0.1254883,0.1904297 c-0.1337891,0.2060547-0.2714844,0.4086914-0.4047852,0.6152344c-0.5258789,0.815918-1.0395508,1.640625-1.5537109,2.4643555 c-0.0478516,0.0761719-0.0952148,0.1523438-0.1430664,0.2290039c-0.2270508,0.3623047-0.4560547,0.7236328-0.6796875,1.0888672 c-0.5039062,0.8208008-0.9975586,1.6474609-1.4897461,2.4765625c-0.2661133,0.4477539-0.5327148,0.8950195-0.7954102,1.3452148 c-0.4907227,0.840332-0.9736328,1.6855469-1.4521484,2.5336914c-0.2114258,0.375-0.4208984,0.7504883-0.6303711,1.1269531 c-0.0258789,0.0463867-0.0517578,0.0927734-0.0776367,0.1391602c-0.5014648,0.9042969-0.9980469,1.8120117-1.4858398,2.7250977 c-0.0444336,0.0834961-0.0883789,0.1679688-0.1328125,0.2514648c-0.1381836,0.2612305-0.2758789,0.5224609-0.4135742,0.7841797 c-0.5229492,0.9921875-1.0419922,1.9868164-1.5483398,2.9887695c-0.090332,0.1782227-0.1772461,0.3579102-0.2666016,0.5361328 c-1.1982422,2.3886719-2.3540039,4.8027344-3.4584961,7.2451172c-0.6674805,1.4765625-1.3173828,2.9628906-1.9501953,4.4584961 c-5.0600586,11.9638672-8.9892578,24.5224609-11.6533203,37.5419922S217,352.1928711,217,366 c0,1.9589844,0.0327148,3.9121094,0.0917969,5.8574219c0.0029297,0.1015625,0.0083008,0.203125,0.0117188,0.3056641 c0.0605469,1.8876953,0.1435547,3.7685547,0.2529297,5.6435547c4.5024414,2.3261719,9.1005859,4.4912109,13.7944336,6.4765625 C243.1147461,389.34375,255.6733398,393.2724609,268.6928711,395.9365234z"/> <path fill="#00A99D" d="M400.0009766,378.1328125L400.0009766,378.1328125 c-0.1308594,0.0664062-0.2587891,0.1386719-0.390625,0.2060547 C399.7421875,378.2714844,399.8701172,378.1992188,400.0009766,378.1328125z"/> <path fill="#00A99D" d="M395.8798828,380.1855469c0.0039062-0.0019531,0.0078125-0.0039062,0.0117188-0.0058594 c-0.0283203,0.0136719-0.0566406,0.0273438-0.0849609,0.0410156 C395.8320312,380.2080078,395.8544922,380.1972656,395.8798828,380.1855469z"/> <polygon fill="#00A99D" points="392.9033203,381.5966797 392.9072266,381.5947266 392.8964844,381.5996094 "/> <path fill="#00A99D" d="M386.8496094,384.2832031c2.0341797-0.8603516,4.0488281-1.7568359,6.046875-2.6835938 C390.8974609,382.5263672,388.8837891,383.4228516,386.8496094,384.2832031z"/> <path fill="#00A99D" d="M392.9033203,381.5966797c-0.0019531,0.0009766-0.0048828,0.0019531-0.0068359,0.0029297 c-1.9980469,0.9267578-4.0126953,1.8232422-6.046875,2.6835938c-11.9638672,5.0605469-24.5229492,8.9892578-37.5424805,11.6533203 c13.0195312-2.6640625,25.7734375-6.5927734,37.737793-11.6533203 C389.0820312,383.421875,390.9638672,382.5244141,392.9033203,381.5966797z"/> <path fill="#00A99D" d="M395.8916016,380.1796875c1.2460938-0.6025391,2.4873047-1.2138672,3.71875-1.8408203 C398.3789062,378.9658203,397.1376953,379.5771484,395.8916016,380.1796875z"/> <path fill="#00A99D" d="M400,378.3388672c0-0.0068359,0-0.0146484,0-0.0214844c0-0.0615234,0.0009766-0.1230469,0.0009766-0.1845703 c-0.1308594,0.0664062-0.2587891,0.1386719-0.390625,0.2060547c-1.2314453,0.6269531-2.4726562,1.2382812-3.71875,1.8408203 c-0.0039062,0.0019531-0.0078125,0.0039062-0.0117188,0.0058594C397.1708984,379.5820312,398.5214844,378.9667969,400,378.3388672z" /> <path fill="#FFFF00" d="M217.0561523,372.1337891C217.0537109,372.0429688,217,371.9521484,217,371.8613281 c0-0.0019531,0-0.0029297,0-0.0039062c0-1.9462891-0.0458984-3.8974609-0.0458984-5.8574219 c0-13.8071289,1.4223633-27.2875977,4.0864258-40.3071289s6.6049805-25.578125,11.6645508-37.5419922 c2.3129883-5.4682617,4.875-10.8056641,7.6489258-16.0126953c0.043457-0.0820312,0.0864258-0.1645508,0.1298828-0.2460938 c0.0009766-0.0019531,0.0019531-0.003418,0.0029297-0.0053711c0.5131836-0.9599609,1.0356445-1.9140625,1.5634766-2.8642578 c0.2041016-0.3671875,0.4086914-0.7338867,0.6147461-1.0996094c0.0048828-0.0092773,0.0107422-0.0180664,0.015625-0.0273438 c0.4785156-0.8481445,0.9614258-1.6933594,1.4521484-2.5336914c0.0019531-0.0043945,0.0043945-0.0083008,0.0068359-0.012207 c0.2597656-0.4443359,0.5229492-0.8862305,0.7856445-1.328125c0.0009766-0.0014648,0.0019531-0.003418,0.0029297-0.0048828 c0.7109375-1.1967773,1.434082-2.3852539,2.1694336-3.5654297c0.0458984-0.0737305,0.0917969-0.1469727,0.1376953-0.2207031 c0.0019531-0.0029297,0.003418-0.0053711,0.0053711-0.0083008c0.5146484-0.8237305,1.027832-1.6489258,1.5537109-2.4643555 c0.0014648-0.0019531,0.0024414-0.0043945,0.0039062-0.0063477c0.1313477-0.2041016,0.2666016-0.4057617,0.4008789-0.6088867 c0.6450195-0.9921875,1.2895508-1.9848633,1.9516602-2.9648438c7.1884766-10.6396484,15.3764648-20.5507812,24.4248047-29.5991211 s18.9609375-17.2333984,29.6005859-24.421875c1.0981445-0.7416992,2.2094727-1.4663086,3.3227539-2.1865234 c-1.0634766-0.6879883-2.137207-1.362793-3.2143555-2.03125c-0.1987305-0.1230469-0.3955078-0.2485352-0.5942383-0.3710938 c-0.9707031-0.5976562-1.949707-1.1835938-2.9311523-1.7651367c-0.3354492-0.1987305-0.6699219-0.3984375-1.0068359-0.5952148 c-0.8999023-0.5263672-1.8061523-1.0439453-2.7148438-1.5561523c-0.4394531-0.2480469-0.8793945-0.4941406-1.3212891-0.7387695 c-0.8383789-0.4643555-1.6806641-0.9233398-2.5263672-1.3764648c-0.5375977-0.2875977-1.0776367-0.5712891-1.6181641-0.8540039 c-0.7763672-0.40625-1.5532227-0.8105469-2.3354492-1.2070312c-0.6469727-0.3276367-1.2988281-0.6479492-1.949707-0.96875 c-0.6962891-0.34375-1.3916016-0.6889648-2.0927734-1.0249023c-0.8046875-0.3847656-1.6157227-0.7583008-2.4262695-1.1328125 c-0.5708008-0.2636719-1.1381836-0.5332031-1.7119141-0.7919922c-1.293457-0.5825195-2.5942383-1.1513672-3.9023438-1.7070312 c-0.1020508-0.043457-0.2026367-0.0898438-0.3046875-0.1328125c-11.9638672-5.0600586-24.5219727-8.9892578-37.5415039-11.6533203 c-2.8481445-0.5830078-5.722168-1.09375-8.612793-1.5541992C221.3701172,166.8652344,210.7866211,166,200,166 s-21.3701172,0.8652344-31.6943359,2.5092773c-2.890625,0.4604492-5.7646484,0.9711914-8.612793,1.5541992 c-13.0195312,2.6640625-25.578125,6.5932617-37.5419922,11.6533203c-0.0195312,0.0083008-0.0385742,0.0170898-0.0581055,0.0249023 c-1.2861328,0.5444336-2.5625,1.1074219-3.8344727,1.6777344c-0.480957,0.2163086-0.9604492,0.4360352-1.4394531,0.6557617 c-0.8037109,0.3676758-1.6030273,0.7426758-2.4008789,1.1206055c-0.5625,0.2670898-1.1259766,0.5317383-1.6855469,0.8041992 c-1.0131836,0.4921875-2.0209961,0.9941406-3.0244141,1.5029297c-0.1054688,0.0532227-0.2124023,0.1044922-0.3178711,0.1582031 C109.1416016,191.7436523,109,195.8549805,109,200c0,13.8071289,1.3994141,27.2875977,4.0634766,40.3071289 s6.5932617,25.578125,11.6533203,37.5419922c5.0605469,11.9638672,11.2519531,23.3330078,18.4399414,33.9731445 c7.1884766,10.6396484,15.3735352,20.5507812,24.421875,29.5991211s18.9594727,17.2333984,29.5991211,24.4213867 c6.4658203,4.3681641,13.2045898,8.3623047,20.1787109,11.9638672c-0.109375-1.875-0.21875-3.7548828-0.2758789-5.6435547 C217.0800781,372.1533203,217.0566406,372.1435547,217.0561523,372.1337891z"/> <path fill="#FF0000" d="M248.7983398,257.7514648c-0.0014648,0.0019531-0.0024414,0.0043945-0.0039062,0.0063477 c0.1333008-0.206543,0.2709961-0.4091797,0.4047852-0.6152344 C249.0649414,257.3457031,248.9296875,257.5473633,248.7983398,257.7514648z"/> <path fill="#FF0000" d="M244.925293,264.0214844c-0.2626953,0.4418945-0.5258789,0.8837891-0.7856445,1.328125 c-0.0024414,0.0039062-0.0048828,0.0078125-0.0068359,0.012207c0.2626953-0.4501953,0.5292969-0.8974609,0.7954102-1.3452148 C244.9272461,264.0180664,244.9262695,264.0200195,244.925293,264.0214844z"/> <path fill="#FF0000" d="M247.2353516,260.2304688c-0.0458984,0.0737305-0.0917969,0.1469727-0.1376953,0.2207031 c0.0478516-0.0766602,0.0952148-0.152832,0.1430664-0.2290039 C247.2387695,260.2250977,247.2373047,260.2275391,247.2353516,260.2304688z"/> <path fill="#FF0000" d="M240.4838867,271.8920898c-0.043457,0.081543-0.0864258,0.1640625-0.1298828,0.2460938 c0.0444336-0.0834961,0.0883789-0.1679688,0.1328125-0.2514648 C240.4858398,271.8886719,240.4848633,271.8901367,240.4838867,271.8920898z"/> <path fill="#FF0000" d="M242.6650391,267.9228516c-0.2060547,0.3657227-0.4106445,0.7324219-0.6147461,1.0996094 c0.2094727-0.3764648,0.4189453-0.7519531,0.6303711-1.1269531 C242.6757812,267.9047852,242.6699219,267.9135742,242.6650391,267.9228516z"/> <path opacity="0.53" fill="#FF0000" d="M217,366c0,1.9609375,0.0356445,3.9140625,0.0917969,5.8613281 C217.0327148,369.9150391,217,367.9609375,217,366z"/> <path opacity="0.53" fill="#FF0000" d="M217.3564453,377.8066406c-0.1098633-1.8847656-0.1938477-3.7753906-0.2543945-5.6728516 C217.159668,374.03125,217.246582,375.921875,217.3564453,377.8066406L217.3564453,377.8066406z"/> <path fill="#FF0000" d="M504.9365234,159.6928711c-2.6640625-13.0195312-6.5927734-25.578125-11.6533203-37.5419922 S482.03125,98.8178711,474.8427734,88.1777344c-7.1884766-10.6396484-15.3730469-20.5507812-24.4208984-29.5991211 c-9.0488281-9.0483398-18.9589844-17.2333984-29.5996094-24.421875 c-10.6396484-7.1879883-22.0087891-13.3793945-33.9726562-18.4399414 c-11.9638672-5.0600586-24.5229492-8.9892578-37.5424805-11.6533203S322.8071289,0,309,0 s-27.2875977,1.3994141-40.3071289,4.0634766s-25.578125,6.5932617-37.5419922,11.6533203 c-11.9638672,5.0605469-23.3330078,11.2519531-33.9731445,18.4399414 c-10.6396484,7.1884766-20.5507812,15.3735352-29.5991211,24.421875s-17.2333984,18.9594727-24.421875,29.5991211 c-7.1879883,10.6401367-13.3793945,22.0092773-18.4399414,33.9731445 c-5.0600586,11.9638672-8.9892578,24.5224609-11.6533203,37.5419922c-1.8642578,9.1108398-3.09375,18.4516602-3.6733398,27.9682617 c4.1723633-2.1240234,8.4262695-4.1108398,12.7607422-5.9443359c11.9638672-5.0600586,24.5224609-8.9892578,37.5419922-11.6533203 S186.1928711,166,200,166s27.2875977,1.3994141,40.3071289,4.0634766s25.578125,6.5932617,37.5419922,11.6533203 c10.7290039,4.5380859,20.9750977,9.9931641,30.6508789,16.253418c9.6757812-6.2602539,19.921875-11.715332,30.6508789-16.253418 c11.9638672-5.0600586,24.5224609-8.9892578,37.5419922-11.6533203C389.7128906,167.3994141,403.1933594,166,417,166 s27.2871094,1.3994141,40.3076172,4.0634766c13.0195312,2.6640625,25.578125,6.5932617,37.5419922,11.6533203 c4.6933594,1.9853516,9.2919922,4.1503906,13.7939453,6.4755859 C508.0791016,178.4921875,506.8359375,168.9736328,504.9365234,159.6928711z"/> <path fill="#FF00FF" d="M217.0561523,372.1337891C217.0537109,372.0429688,217,371.9521484,217,371.8613281 c0-0.0019531,0-0.0029297,0-0.0039062c0-1.9462891-0.0458984-3.8974609-0.0458984-5.8574219 c0-13.8071289,1.4223633-27.2875977,4.0864258-40.3071289s6.6049805-25.578125,11.6645508-37.5419922 c5.0605469-11.9638672,11.2578125-23.3330078,18.4458008-33.9731445 c7.1884766-10.6396484,15.3764648-20.5507812,24.4248047-29.5991211s18.9609375-17.2333984,29.6005859-24.421875 c1.0981445-0.7416992,2.2094727-1.4663086,3.3227539-2.1865234c-9.6757812-6.2602539-19.9213867-11.715332-30.6503906-16.253418 c-11.9638672-5.0600586-24.5219727-8.9892578-37.5415039-11.6533203S213.8071289,166,200,166 s-27.2875977,1.3994141-40.3071289,4.0634766s-25.578125,6.5932617-37.5419922,11.6533203 c-4.3344727,1.8334961-8.5883789,3.8203125-12.7607422,5.9443359C109.1416016,191.7436523,109,195.8549805,109,200 c0,13.8071289,1.3994141,27.2875977,4.0634766,40.3071289s6.5932617,25.578125,11.6533203,37.5419922 c5.0605469,11.9638672,11.2519531,23.3330078,18.4399414,33.9731445 c7.1884766,10.6396484,15.3735352,20.5507812,24.421875,29.5991211s18.9594727,17.2333984,29.5991211,24.4213867 c6.4658203,4.3681641,13.2045898,8.3623047,20.1787109,11.9638672c-0.109375-1.875-0.21875-3.7548828-0.2758789-5.6435547 C217.0800781,372.1533203,217.0566406,372.1435547,217.0561523,372.1337891z"/> <path opacity="0.53" fill="#FFFF00" d="M217,366c0,1.9599609,0.0356445,3.9111328,0.0917969,5.8574219 C217.0356445,369.9111328,217,367.9589844,217,366z"/> <path opacity="0.53" fill="#FFFF00" d="M217.1035156,372.1630859c0.0571289,1.8886719,0.1435547,3.7685547,0.2529297,5.6435547l0,0 C217.2470703,375.9316406,217.1611328,374.0507812,217.1035156,372.1630859z"/> <path opacity="0.53" fill="#FF0000" d="M217.0917969,371.8613281c0.0029297,0.0908203,0.0078125,0.1816406,0.0102539,0.2724609 c0.0004883,0.0097656,0.0009766,0.0195312,0.0014648,0.0292969c-0.003418-0.1025391-0.0087891-0.2041016-0.0117188-0.3056641 C217.0917969,371.8583984,217.0917969,371.859375,217.0917969,371.8613281z"/> <path fill="#FFFF00" d="M508.6435547,188.1923828c-4.5019531-2.3251953-9.1005859-4.4902344-13.7939453-6.4755859 c-11.9638672-5.0600586-24.5224609-8.9892578-37.5419922-11.6533203C444.2871094,167.3994141,430.8066406,166,417,166 s-27.2871094,1.3994141-40.3071289,4.0634766c-13.0195312,2.6640625-25.578125,6.5932617-37.5419922,11.6533203 c-10.7290039,4.5380859-20.9750977,9.9931641-30.6508789,16.253418c1.1132812,0.7202148,2.2241211,1.4448242,3.3222656,2.1865234 c10.6396484,7.1884766,20.5507812,15.3735352,29.5991211,24.421875s17.2333984,18.9594727,24.421875,29.5991211 c7.1879883,10.6401367,13.3793945,22.0092773,18.4399414,33.9731445s8.9892578,24.5224609,11.6533203,37.5419922 S400,352.1928711,400,366c0,4.1455078-0.1416016,8.2568359-0.3896484,12.3388672 c7.3427734-3.7382812,14.4267578-7.9121094,21.2119141-12.4960938c10.640625-7.1879883,20.5507812-15.3730469,29.5996094-24.4213867 c9.0478516-9.0483398,17.2324219-18.9594727,24.4208984-29.5991211 c7.1884766-10.6401367,13.3798828-22.0092773,18.4404297-33.9731445s8.9892578-24.5224609,11.6533203-37.5419922 S509,213.8071289,509,200C509,196.0351562,508.8710938,192.1005859,508.6435547,188.1923828z"/> <path fill="#FFFFFF" d="M395.9365234,325.6928711c-2.6640625-13.0195312-6.5927734-25.578125-11.6533203-37.5419922 s-11.2519531-23.3330078-18.4399414-33.9731445c-7.1884766-10.6396484-15.3735352-20.5507812-24.421875-29.5991211 s-18.9594727-17.2333984-29.5991211-24.421875c-1.0981445-0.7416992-2.2089844-1.4663086-3.3222656-2.1865234 c-1.1132812,0.7202148-2.2241211,1.4448242-3.3222656,2.1865234c-10.6396484,7.1884766-20.5507812,15.3735352-29.5991211,24.421875 s-17.2333984,18.9594727-24.421875,29.5991211c-7.1879883,10.6401367-13.3793945,22.0092773-18.4399414,33.9731445 c-5.0600586,11.9638672-8.9892578,24.5224609-11.6533203,37.5419922S217,352.1928711,217,366 c0,1.9589844,0.0327148,3.9121094,0.0917969,5.8574219c0.0029297,0.1015625,0.0083008,0.203125,0.0117188,0.3056641 c0.0605469,1.8876953,0.1435547,3.7685547,0.2529297,5.6435547c4.5024414,2.3261719,9.1005859,4.4912109,13.7944336,6.4765625 c11.9638672,5.0605469,24.5224609,8.9892578,37.5419922,11.6533203S295.1928711,400,309,400 s27.2875977-1.3994141,40.3071289-4.0634766s25.5786133-6.5927734,37.5424805-11.6533203 c4.3349609-1.8330078,8.5878906-3.8203125,12.7607422-5.9443359C399.8583984,374.2568359,400,370.1455078,400,366 C400,352.1928711,398.6005859,338.7124023,395.9365234,325.6928711z"/> <path opacity="0.53" fill="#FF0000" d="M217.1020508,372.1337891c-0.0024414-0.0908203-0.0073242-0.1816406-0.0102539-0.2724609 C217.0947266,371.9521484,217.0996094,372.0429688,217.1020508,372.1337891z"/> <path opacity="0.53" fill="#FF0000" d="M308.5,197.9702148L308.5,197.9702148 c-1.1132812,0.7202148-2.2241211,1.4448242-3.3222656,2.1865234C306.2758789,199.4150391,307.3867188,198.6904297,308.5,197.9702148 z"/> </svg>