<?xml version="1.0" encoding="utf-8"?>
<!-- Generator: Adobe Illustrator 15.1.0, SVG Export Plug-In . SVG Version: 6.00 Build 0)  -->
<!DOCTYPE svg PUBLIC "-//W3C//DTD SVG 1.1//EN" "http://www.w3.org/Graphics/SVG/1.1/DTD/svg11.dtd">
<svg version="1.1" xmlns="http://www.w3.org/2000/svg" xmlns:xlink="http://www.w3.org/1999/xlink" x="0px" y="0px" width="1280px"
	 height="1024px" viewBox="0 0 1280 1024" enable-background="new 0 0 1280 1024" xml:space="preserve">
<g id="Layer_2_copy_2">
	<path fill="#FF0000" d="M587.758,332.484c0.677-0.334,1.354-0.67,2.035-0.997C589.111,331.814,588.435,332.15,587.758,332.484z"/>
	<path fill="#FF0000" d="M583.463,334.664c0.759-0.397,1.519-0.792,2.283-1.18C584.981,333.871,584.222,334.267,583.463,334.664z"/>
	<path fill="#FF0000" d="M757.826,329.457c0.537,0.241,1.07,0.489,1.604,0.734C758.896,329.945,758.363,329.698,757.826,329.457z"/>
	<path fill="#FF0000" d="M592.29,330.322c0.549-0.253,1.094-0.513,1.646-0.762C593.384,329.81,592.838,330.069,592.29,330.322z"/>
	<path fill="#FF0000" d="M571.338,341.551c0.945-0.582,1.898-1.152,2.854-1.719C573.235,340.398,572.283,340.969,571.338,341.551z"
		/>
	<path fill="#FF0000" d="M575.275,339.191c0.879-0.514,1.765-1.02,2.653-1.521C577.04,338.171,576.155,338.677,575.275,339.191z"/>
	<path fill="#FF0000" d="M579.315,336.895c0.82-0.454,1.644-0.903,2.471-1.346C580.959,335.991,580.136,336.441,579.315,336.895z"/>
	<path fill="#FF0000" d="M570.632,341.991c-1.049,0.652-2.095,1.309-3.132,1.979l0,0
		C568.539,343.303,569.583,342.643,570.632,341.991z"/>
	<path fill="#FF0000" d="M564.178,346.157c1.097-0.741,2.206-1.464,3.317-2.183C566.381,344.69,565.274,345.416,564.178,346.157z"/>
	<path fill="#FF0000" d="M498.932,418.938c-0.52,0.986-1.035,1.974-1.538,2.97c0,0.001-0.001,0.002-0.001,0.003
		c0.506-1.002,1.025-1.997,1.548-2.989C498.938,418.928,498.935,418.933,498.932,418.938z"/>
	<path fill="#FF0000" d="M503.134,411.36c0.002-0.003,0.004-0.007,0.006-0.01c-0.498,0.854-0.989,1.712-1.475,2.573
		c0.003-0.004,0.005-0.009,0.008-0.013C502.154,413.056,502.641,412.206,503.134,411.36z"/>
	<path fill="#FF0000" d="M500.965,415.174c-0.495,0.894-0.986,1.79-1.467,2.692c0.484-0.906,0.977-1.807,1.475-2.705
		C500.97,415.166,500.968,415.17,500.965,415.174z"/>
	<path fill="#FF0000" d="M499.49,417.881c-0.002,0.003-0.004,0.007-0.006,0.011c0.004-0.009,0.009-0.017,0.014-0.026
		C499.495,417.871,499.493,417.876,499.49,417.881z"/>
	<path fill="#FF0000" d="M505.413,407.548c-0.363,0.591-0.717,1.187-1.072,1.782c0.357-0.598,0.713-1.197,1.077-1.79
		C505.416,407.542,505.415,407.545,505.413,407.548z"/>
	<path fill="#FF0000" d="M504.341,409.33c-0.138,0.231-0.278,0.46-0.416,0.691c0.004-0.006,0.007-0.013,0.011-0.019
		C504.07,409.778,504.207,409.555,504.341,409.33z"/>
	<path fill="#FF0000" d="M497.121,422.456c-0.563,1.122-1.12,2.248-1.662,3.382c0.543-1.137,1.102-2.266,1.666-3.391
		C497.124,422.45,497.123,422.453,497.121,422.456z"/>
	<path fill="#FF0000" d="M508.354,402.907c-0.01,0.015-0.02,0.03-0.029,0.045c0.605-0.929,1.212-1.856,1.832-2.774
		C509.546,401.081,508.95,401.994,508.354,402.907z"/>
	<path fill="#FF0000" d="M507.795,403.756c-0.522,0.811-1.032,1.63-1.543,2.448c-0.005,0.009-0.011,0.018-0.017,0.027
		c0.518-0.829,1.034-1.658,1.563-2.479C507.797,403.753,507.796,403.754,507.795,403.756z"/>
	<path fill="#FF0000" d="M506.235,406.23c0.005-0.009,0.011-0.018,0.017-0.027c-0.28,0.448-0.562,0.894-0.839,1.344
		c0.001-0.003,0.003-0.005,0.005-0.008C505.687,407.101,505.963,406.667,506.235,406.23z"/>
	<polygon fill="#FF0000" points="497.392,421.911 497.392,421.911 497.394,421.908 	"/>
	<path fill="#FF0000" d="M497.325,422.045c-0.068,0.137-0.136,0.274-0.204,0.411c0.001-0.003,0.003-0.006,0.004-0.009
		C497.192,422.313,497.259,422.179,497.325,422.045z"/>
	<path fill="#FF0000" d="M497.392,421.911c-0.022,0.045-0.044,0.09-0.067,0.134C497.348,422,497.37,421.956,497.392,421.911
		C497.392,421.911,497.392,421.911,497.392,421.911z"/>
	<path fill="#FF0000" d="M508.325,402.952c0.01-0.015,0.02-0.03,0.029-0.045c-0.185,0.284-0.375,0.564-0.559,0.849
		c0.001-0.001,0.002-0.003,0.003-0.004C507.971,403.483,508.15,403.22,508.325,402.952z"/>
	<path fill="#FF0000" d="M499.267,418.304c-0.112,0.211-0.224,0.423-0.335,0.634c0.003-0.005,0.006-0.011,0.009-0.016
		C499.049,418.716,499.158,418.51,499.267,418.304z"/>
	<path fill="#FF0000" d="M499.484,417.892c-0.073,0.137-0.145,0.275-0.217,0.412c0.074-0.141,0.148-0.282,0.223-0.423
		C499.488,417.885,499.486,417.889,499.484,417.892z"/>
	<path fill="#FF0000" d="M503.925,410.021c-0.263,0.442-0.526,0.884-0.786,1.328c-0.002,0.003-0.004,0.007-0.006,0.01
		c0.265-0.454,0.534-0.905,0.803-1.357C503.933,410.009,503.929,410.015,503.925,410.021z"/>
	<path fill="#FF0000" d="M501.206,414.745c-0.08,0.143-0.161,0.286-0.24,0.43c0.002-0.004,0.005-0.008,0.007-0.013
		C501.05,415.022,501.128,414.884,501.206,414.745z"/>
	<path fill="#FF0000" d="M501.665,413.923c-0.154,0.273-0.307,0.548-0.459,0.822c0.156-0.278,0.311-0.557,0.467-0.835
		C501.67,413.914,501.668,413.918,501.665,413.923z"/>
	<path fill="#FF0000" d="M564.178,346.157c-10.641,7.188-20.551,15.374-29.6,24.422c-9.048,9.048-17.233,18.959-24.421,29.599
		c7.188-10.64,15.374-20.551,24.422-29.599S553.538,353.345,564.178,346.157z"/>
	<path fill="#00FF00" d="M871.937,471.693c-2.664-13.02-6.593-25.578-11.653-37.542s-11.252-23.333-18.44-33.973
		c-7.188-10.64-15.373-20.551-24.421-29.599c-9.049-9.048-18.959-17.233-29.6-24.422c-6.466-4.368-13.204-8.362-20.179-11.964
		C767.871,338.101,768,342.035,768,346c0,13.807-1.399,27.288-4.063,40.307s-6.593,25.578-11.653,37.542
		s-11.252,23.333-18.44,33.973c-7.188,10.64-15.373,20.551-24.421,29.599c-9.049,9.048-18.959,17.233-29.6,24.421
		c-6.785,4.584-13.869,8.758-21.212,12.496c-4.173,2.124-8.426,4.111-12.761,5.944c-11.964,5.061-24.523,8.989-37.542,11.653
		S581.807,546,568,546s-27.288-1.399-40.307-4.063s-25.578-6.593-37.542-11.653c-4.694-1.985-9.292-4.15-13.794-6.477
		c0.565,9.7,1.808,19.219,3.707,28.5c2.664,13.02,6.593,25.578,11.653,37.543c5.061,11.963,11.251,23.332,18.44,33.973
		c7.188,10.64,15.374,20.551,24.421,29.6c9.049,9.048,18.959,17.232,29.6,24.421c10.64,7.188,22.009,13.38,33.973,18.44
		s24.522,8.989,37.542,11.653C648.713,710.601,662.193,712,676,712s27.287-1.399,40.308-4.063
		c13.02-2.664,25.578-6.593,37.542-11.653s23.333-11.252,33.973-18.44c10.641-7.188,20.551-15.373,29.6-24.421
		c9.048-9.049,17.232-18.96,24.421-29.6c7.188-10.641,13.38-22.01,18.44-33.973c5.061-11.965,8.989-24.523,11.653-37.543
		S876,525.807,876,512C876,498.193,874.601,484.712,871.937,471.693z"/>
	<path fill="#FF0000" d="M476.236,521.655c0.039,0.718,0.078,1.436,0.12,2.151c-0.096-1.652-0.165-3.311-0.223-4.972
		C476.166,519.775,476.192,520.718,476.236,521.655z"/>
	<path fill="#FF0000" d="M476.087,517.557C476.034,515.711,476,513.858,476,512C476,513.859,476.035,515.71,476.087,517.557z"/>
	<path fill="#FF0000" d="M476.092,517.857c0.003,0.102,0.008,0.203,0.012,0.306c0.007,0.225,0.022,0.447,0.03,0.672
		c-0.015-0.427-0.035-0.852-0.047-1.278C476.09,517.657,476.089,517.758,476.092,517.857z"/>
	<path fill="#FF0000" d="M476.236,521.655c0.034,0.719,0.078,1.435,0.12,2.151l0,0C476.314,523.091,476.275,522.373,476.236,521.655
		z"/>
	<path fill="#F7931E" d="M501.665,413.923c-0.232,0.412-0.463,0.825-0.692,1.239C501.202,414.748,501.433,414.335,501.665,413.923z"
		/>
	<path fill="#F7931E" d="M506.235,406.23c-0.272,0.437-0.548,0.871-0.817,1.31C505.687,407.101,505.963,406.667,506.235,406.23z"/>
	<path fill="#F7931E" d="M508.325,402.952c-0.174,0.268-0.354,0.531-0.526,0.799C507.971,403.483,508.15,403.22,508.325,402.952z"/>
	<path fill="#F7931E" d="M499.484,417.892c-0.183,0.342-0.363,0.687-0.543,1.03C499.121,418.579,499.301,418.234,499.484,417.892z"
		/>
	<path fill="#F7931E" d="M503.925,410.021c-0.263,0.442-0.526,0.884-0.786,1.328C503.399,410.905,503.663,410.463,503.925,410.021z"
		/>
	<path fill="#F7931E" d="M497.392,421.911c-0.09,0.178-0.177,0.357-0.267,0.536C497.215,422.269,497.302,422.089,497.392,421.911z"
		/>
	<path fill="#FF0000" d="M765.353,333.036c0.763,0.382,1.526,0.762,2.283,1.153C766.879,333.797,766.115,333.417,765.353,333.036z"
		/>
	<path fill="#FF0000" d="M635.693,316.063c9.765-1.998,19.789-3.285,30.015-3.803C655.481,312.779,645.458,314.065,635.693,316.063
		c-13.02,2.664-25.579,6.593-37.542,11.653c-0.051,0.021-0.101,0.045-0.152,0.066c0.051-0.021,0.101-0.045,0.152-0.066
		C610.115,322.657,622.673,318.728,635.693,316.063z"/>
	<path fill="#FF0000" d="M761.663,331.234c0.677,0.322,1.353,0.646,2.025,0.975C763.016,331.88,762.341,331.556,761.663,331.234z"/>
	<path fill="#C69C6D" d="M709.422,487.421c9.048-9.048,17.232-18.959,24.421-29.599c7.188-10.64,13.38-22.009,18.44-33.973
		s8.989-24.522,11.653-37.542S768,359.807,768,346c0-3.965-0.129-7.899-0.356-11.808c-0.003-0.001-0.005-0.002-0.008-0.004
		c-0.757-0.391-1.521-0.771-2.283-1.153c-0.554-0.277-1.107-0.555-1.664-0.827c-0.673-0.329-1.349-0.653-2.025-0.975
		c-0.741-0.352-1.486-0.7-2.233-1.043c-0.533-0.246-1.066-0.493-1.604-0.734c-1.318-0.592-2.643-1.175-3.977-1.74
		c-11.964-5.06-24.522-8.989-37.542-11.653C703.287,313.399,689.807,312,676,312c-3.451,0-6.883,0.087-10.292,0.26
		c-10.227,0.519-20.25,1.805-30.015,3.803c-13.02,2.664-25.578,6.593-37.542,11.653c-0.051,0.021-0.101,0.045-0.152,0.066
		c-1.362,0.578-2.716,1.171-4.063,1.777c-0.552,0.249-1.097,0.508-1.646,0.762c-0.834,0.385-1.669,0.77-2.497,1.166
		c-0.682,0.327-1.358,0.663-2.035,0.997c-0.672,0.331-1.344,0.661-2.012,1c-0.764,0.388-1.524,0.783-2.283,1.18
		c-0.56,0.293-1.12,0.586-1.677,0.885c-0.827,0.443-1.65,0.892-2.471,1.346c-0.464,0.257-0.926,0.516-1.387,0.776
		c-0.888,0.501-1.773,1.006-2.653,1.521c-0.363,0.212-0.723,0.427-1.084,0.641c-0.956,0.566-1.909,1.137-2.854,1.719
		c-0.236,0.145-0.47,0.294-0.706,0.44c-1.049,0.652-2.095,1.309-3.132,1.979c1.113,0.72,2.224,1.445,3.322,2.187
		c10.64,7.188,20.551,15.374,29.599,24.422s17.233,18.959,24.422,29.599c7.188,10.64,13.379,22.009,18.44,33.973
		s8.989,24.522,11.653,37.542S659,498.193,659,512c0,4.146-0.142,8.257-0.39,12.339c7.343-3.738,14.427-7.912,21.212-12.496
		C690.463,504.655,700.373,496.47,709.422,487.421z"/>
</g>
<g id="Layer_3">
	<path fill="#FF0000" d="M553.19,335.536c0.846,0.453,1.688,0.912,2.526,1.376C554.878,336.448,554.036,335.989,553.19,335.536z"/>
	<path fill="#FF0000" d="M549.236,333.475c0.782,0.396,1.559,0.801,2.335,1.207C550.795,334.276,550.019,333.871,549.236,333.475z"
		/>
	<path fill="#FF0000" d="M375.819,330.075c0.479-0.22,0.958-0.439,1.439-0.656C376.777,329.635,376.298,329.855,375.819,330.075z"/>
	<path fill="#FF0000" d="M545.194,331.481c0.701,0.336,1.396,0.681,2.093,1.025C546.59,332.163,545.895,331.817,545.194,331.481z"/>
	<path fill="#FF0000" d="M557.038,337.651c0.909,0.512,1.815,1.03,2.715,1.556C558.852,338.682,557.947,338.164,557.038,337.651z"/>
	<path fill="#FF0000" d="M541.056,329.557c0.574,0.259,1.141,0.528,1.712,0.792C542.197,330.085,541.629,329.815,541.056,329.557z"
		/>
	<path fill="#FF0000" d="M371.732,332c0.56-0.272,1.123-0.537,1.686-0.804C372.855,331.463,372.292,331.728,371.732,332z"/>
	<path fill="#FF0000" d="M536.849,327.717c0.102,0.043,0.203,0.089,0.305,0.133C537.052,327.807,536.952,327.76,536.849,327.717
		c-11.963-5.06-24.521-8.989-37.541-11.653c-2.848-0.583-5.722-1.094-8.613-1.554c2.891,0.46,5.765,0.971,8.613,1.554
		C512.327,318.728,524.885,322.657,536.849,327.717z"/>
	<path fill="#FF0000" d="M418.693,316.063c2.848-0.583,5.722-1.094,8.613-1.554C424.415,314.97,421.541,315.48,418.693,316.063
		c-13.02,2.664-25.579,6.593-37.542,11.653c-0.019,0.008-0.038,0.017-0.058,0.025c0.02-0.008,0.039-0.017,0.058-0.025
		C393.115,322.657,405.673,318.728,418.693,316.063z"/>
	<path fill="#FF0000" d="M560.759,339.803c0.981,0.582,1.96,1.167,2.931,1.765C562.719,340.97,561.741,340.384,560.759,339.803z"/>
	<path fill="#FF0000" d="M658.884,518.498c-0.065,1.946-0.155,3.887-0.272,5.819C658.729,522.385,658.821,520.445,658.884,518.498z"
		/>
	<path fill="#FF0000" d="M510.157,400.178c7.188-10.64,15.374-20.551,24.422-29.599s18.959-17.233,29.599-24.422
		c1.097-0.741,2.206-1.464,3.317-2.183c0.002-0.001,0.004-0.002,0.005-0.003c1.113,0.72,2.224,1.445,3.322,2.187
		c-2.147-1.451-4.332-2.849-6.538-4.218c1.077,0.668,2.151,1.343,3.214,2.031c-1.113,0.72-2.225,1.445-3.323,2.187
		c-10.64,7.188-20.552,15.374-29.601,24.422s-17.236,18.959-24.425,29.599c-0.662,0.98-1.307,1.973-1.952,2.965
		c0.042-0.063,0.084-0.126,0.125-0.19C508.93,402.023,509.537,401.096,510.157,400.178z"/>
	<path fill="#FF0000" d="M609.167,379.918c-2.819-3.203-5.729-6.323-8.746-9.339c-9.049-9.048-18.959-17.233-29.6-24.422
		c10.64,7.188,20.551,15.374,29.599,24.422C603.438,373.595,606.348,376.715,609.167,379.918z"/>
	<path fill="#FF0000" d="M506.241,406.222c0.514-0.824,1.028-1.648,1.554-2.464C507.269,404.573,506.755,405.398,506.241,406.222z"
		/>
	<path fill="#FF0000" d="M658.9,518.068c0.06-2.017,0.1-4.037,0.1-6.068C659,514.031,658.964,516.053,658.9,518.068z"/>
	<path fill="#FF0000" d="M501.681,413.896c0.479-0.848,0.961-1.693,1.452-2.534C502.642,412.202,502.159,413.047,501.681,413.896z"
		/>
	<path fill="#FF0000" d="M505.418,407.54c-0.504,0.821-0.998,1.647-1.49,2.477c0.711-1.197,1.434-2.385,2.169-3.565
		C505.871,406.813,505.642,407.175,505.418,407.54z"/>
	<path fill="#FF0000" d="M498.94,418.922c-0.523,0.992-1.042,1.987-1.548,2.989c-0.025,0.049-0.049,0.098-0.073,0.147
		c0.665-1.315,1.343-2.622,2.035-3.92C499.216,418.399,499.078,418.661,498.94,418.922z"/>
	<path fill="#FF0000" d="M497.294,422.108c0.008-0.017,0.017-0.034,0.025-0.05C497.311,422.075,497.303,422.092,497.294,422.108z"/>
	<path fill="#FF0000" d="M497.125,422.447c-0.14,0.279-0.274,0.562-0.413,0.843c0.195-0.393,0.383-0.79,0.581-1.182
		C497.238,422.221,497.182,422.334,497.125,422.447z"/>
	<path fill="#FF0000" d="M493.667,429.692c-0.334,0.739-0.651,1.488-0.977,2.232c0.405-0.922,0.804-1.849,1.224-2.764
		C493.833,429.338,493.748,429.514,493.667,429.692z"/>
	<path fill="#FF0000" d="M493.914,429.161c0.183-0.4,0.37-0.798,0.556-1.196C494.284,428.363,494.098,428.761,493.914,429.161z"/>
	<path fill="#FF0000" d="M476.092,517.857C476.033,515.912,476,513.959,476,512c0-13.807,1.399-27.288,4.063-40.307
		s6.593-25.578,11.653-37.542c0.316-0.747,0.649-1.484,0.974-2.227c-0.326,0.743-0.669,1.478-0.985,2.227
		c-5.06,11.964-9,24.522-11.665,37.542s-4.086,26.5-4.086,40.307c0,1.96,0.046,3.911,0.046,5.857c0,0.001,0,0.002,0,0.004
		c0,0.091,0.054,0.182,0.056,0.272c0,0.01,0.024,0.02,0.024,0.029c0.057,1.889,0.167,3.769,0.276,5.644
		c-0.109-1.875-0.192-3.756-0.253-5.644C476.1,518.061,476.095,517.959,476.092,517.857z"/>
	<path fill="#FF0000" d="M494.47,427.964c0.731-1.567,1.474-3.128,2.243-4.674C495.945,424.837,495.201,426.396,494.47,427.964z"/>
	<path fill="#FF0000" d="M500.973,415.162c-0.501,0.904-0.998,1.812-1.486,2.725c0.513-0.96,1.036-1.914,1.563-2.864
		C501.024,415.069,500.999,415.115,500.973,415.162z"/>
	<path fill="#FF0000" d="M368.39,333.661c0,0.003,0,0.006,0,0.009c0.107-0.054,0.211-0.113,0.318-0.167
		C368.603,333.556,368.496,333.607,368.39,333.661z"/>
	<path fill="#0000FF" d="M534.578,653.422c-9.048-9.049-17.233-18.96-24.421-29.6c-7.188-10.641-13.379-22.01-18.44-33.973
		c-5.06-11.965-8.989-24.523-11.653-37.543c-1.899-9.281-3.142-18.8-3.707-28.5c-6.974-3.602-13.713-7.596-20.179-11.964
		c-10.64-7.188-20.551-15.373-29.599-24.421s-17.233-18.959-24.422-29.599c-7.188-10.64-13.379-22.009-18.44-33.973
		c-5.06-11.964-8.989-24.522-11.653-37.542S368,359.807,368,346c0-4.142,0.142-8.25,0.39-12.33
		c-7.341,3.737-14.428,7.904-21.212,12.486c-10.641,7.188-20.551,15.374-29.6,24.422c-9.048,9.048-17.233,18.959-24.421,29.599
		c-7.188,10.64-13.379,22.009-18.44,33.973c-5.06,11.964-8.989,24.522-11.653,37.542S259,498.193,259,512
		c0,13.807,1.399,27.287,4.063,40.307s6.593,25.578,11.653,37.543c5.061,11.963,11.251,23.332,18.44,33.973
		c7.188,10.64,15.374,20.551,24.421,29.6c9.049,9.048,18.959,17.232,29.6,24.421c10.64,7.188,22.009,13.38,33.973,18.44
		s24.522,8.989,37.542,11.653C431.713,710.601,445.193,712,459,712s27.287-1.399,40.308-4.063
		c13.02-2.664,25.578-6.593,37.542-11.653c10.729-4.538,20.975-9.993,30.65-16.254c-1.113-0.721-2.224-1.444-3.322-2.187
		C553.537,670.654,543.627,662.47,534.578,653.422z"/>
	<path fill="#FF0000" d="M564.178,677.843c1.098,0.742,2.208,1.466,3.322,2.187c0,0,0,0,0,0
		C566.387,679.31,565.276,678.585,564.178,677.843z"/>
	<path fill="#00FFFF" d="M570.822,677.843c10.641-7.188,20.551-15.373,29.6-24.421c9.048-9.049,17.232-18.96,24.421-29.6
		c7.188-10.641,13.38-22.01,18.44-33.973c5.061-11.965,8.989-24.523,11.653-37.543c1.864-9.111,3.094-18.451,3.674-27.968
		c-4.173,2.124-8.426,4.111-12.761,5.944c-11.964,5.061-24.523,8.989-37.542,11.653S581.807,546,568,546s-27.288-1.399-40.307-4.063
		s-25.578-6.593-37.542-11.653c-4.694-1.985-9.292-4.15-13.794-6.477c0.565,9.7,1.808,19.219,3.707,28.5
		c2.664,13.02,6.593,25.578,11.653,37.543c5.061,11.963,11.251,23.332,18.44,33.973c7.188,10.64,15.374,20.551,24.421,29.6
		c9.049,9.048,18.959,17.232,29.6,24.421c1.098,0.742,2.209,1.467,3.322,2.187C568.613,679.31,569.724,678.585,570.822,677.843z"/>
	<path fill="#00A99D" d="M527.693,541.937c13.02,2.664,26.5,4.063,40.307,4.063s27.288-1.399,40.307-4.063
		s25.579-6.593,37.542-11.653c2.034-0.86,4.048-1.757,6.047-2.684c0.004-0.002,0.008-0.003,0.011-0.005
		c0.941-0.45,1.904-0.909,2.899-1.374c0.028-0.014,0.057-0.027,0.085-0.041c1.246-0.603,2.487-1.214,3.719-1.841
		c0.132-0.067,0.26-0.14,0.391-0.206c0.001-1.872,0.014-3.75,0.077-5.635c0.005-0.144-0.084-0.286-0.08-0.43
		c0.062-2.016,0.051-4.037,0.051-6.068c0-13.807-1.424-27.288-4.088-40.307s-6.605-25.578-11.666-37.542
		c-1.266-2.991-2.606-5.945-4.011-8.859c-4.214-8.744-9.047-17.134-14.438-25.114c-4.792-7.093-10.038-13.854-15.677-20.26
		c-2.819-3.203-5.73-6.323-8.747-9.339c-9.048-9.048-18.959-17.233-29.599-24.422c-1.098-0.742-2.209-1.466-3.323-2.187
		c-0.001,0.001-0.003,0.002-0.005,0.003c-1.111,0.719-2.22,1.442-3.317,2.183c-10.64,7.188-20.551,15.374-29.599,24.422
		s-17.233,18.959-24.422,29.599c-0.62,0.918-1.227,1.846-1.832,2.774c-0.042,0.064-0.083,0.127-0.125,0.19
		c-0.134,0.206-0.271,0.409-0.405,0.615c-0.526,0.816-1.04,1.641-1.554,2.464c-0.048,0.076-0.095,0.152-0.143,0.229
		c-0.227,0.362-0.456,0.724-0.68,1.089c-0.504,0.821-0.998,1.647-1.49,2.477c-0.266,0.448-0.533,0.895-0.795,1.345
		c-0.491,0.84-0.974,1.686-1.452,2.534c-0.211,0.375-0.421,0.75-0.63,1.127c-0.026,0.046-0.052,0.093-0.078,0.139
		c-0.501,0.904-0.998,1.812-1.486,2.725c-0.044,0.083-0.088,0.168-0.133,0.251c-0.138,0.261-0.276,0.522-0.414,0.784
		c-0.523,0.992-1.042,1.987-1.548,2.989c-0.09,0.178-0.177,0.358-0.267,0.536c-1.198,2.389-2.354,4.803-3.458,7.245
		c-0.667,1.477-1.317,2.963-1.95,4.458c-5.06,11.964-8.989,24.522-11.653,37.542S476,498.193,476,512
		c0,1.959,0.033,3.912,0.092,5.857c0.003,0.102,0.008,0.203,0.012,0.306c0.061,1.888,0.144,3.769,0.253,5.644
		c4.502,2.326,9.101,4.491,13.794,6.477C502.115,535.344,514.673,539.272,527.693,541.937z"/>
	<path fill="#00A99D" d="M659.001,524.133L659.001,524.133c-0.131,0.066-0.259,0.139-0.391,0.206
		C658.742,524.271,658.87,524.199,659.001,524.133z"/>
	<path fill="#00A99D" d="M654.88,526.186c0.004-0.002,0.008-0.004,0.012-0.006c-0.028,0.014-0.057,0.027-0.085,0.041
		C654.832,526.208,654.854,526.197,654.88,526.186z"/>
	<polygon fill="#00A99D" points="651.903,527.597 651.907,527.595 651.896,527.6 	"/>
	<path fill="#00A99D" d="M645.85,530.283c2.034-0.86,4.049-1.757,6.047-2.684C649.897,528.526,647.884,529.423,645.85,530.283z"/>
	<path fill="#00A99D" d="M651.903,527.597c-0.002,0.001-0.005,0.002-0.007,0.003c-1.998,0.927-4.013,1.823-6.047,2.684
		c-11.964,5.061-24.523,8.989-37.542,11.653c13.02-2.664,25.773-6.593,37.738-11.653
		C648.082,529.422,649.964,528.524,651.903,527.597z"/>
	<path fill="#00A99D" d="M654.892,526.18c1.246-0.603,2.487-1.214,3.719-1.841C657.379,524.966,656.138,525.577,654.892,526.18z"/>
	<path fill="#00A99D" d="M659,524.339c0-0.007,0-0.015,0-0.021c0-0.062,0.001-0.123,0.001-0.185
		c-0.131,0.066-0.259,0.139-0.391,0.206c-1.231,0.627-2.473,1.238-3.719,1.841c-0.004,0.002-0.008,0.004-0.012,0.006
		C656.171,525.582,657.521,524.967,659,524.339z"/>
	<path fill="#FFFF00" d="M476.056,518.134c-0.002-0.091-0.056-0.182-0.056-0.272c0-0.002,0-0.003,0-0.004
		c0-1.946-0.046-3.897-0.046-5.857c0-13.807,1.422-27.288,4.086-40.307s6.605-25.578,11.665-37.542
		c2.313-5.468,4.875-10.806,7.649-16.013c0.043-0.082,0.086-0.165,0.13-0.246c0.001-0.002,0.002-0.003,0.003-0.005
		c0.513-0.96,1.036-1.914,1.563-2.864c0.204-0.367,0.409-0.734,0.615-1.1c0.005-0.009,0.011-0.018,0.016-0.027
		c0.479-0.848,0.961-1.693,1.452-2.534c0.002-0.004,0.004-0.008,0.007-0.012c0.26-0.444,0.523-0.886,0.786-1.328
		c0.001-0.001,0.002-0.003,0.003-0.005c0.711-1.197,1.434-2.385,2.169-3.565c0.046-0.074,0.092-0.147,0.138-0.221
		c0.002-0.003,0.003-0.005,0.005-0.008c0.515-0.824,1.028-1.649,1.554-2.464c0.001-0.002,0.002-0.004,0.004-0.006
		c0.131-0.204,0.267-0.406,0.401-0.609c0.645-0.992,1.29-1.985,1.952-2.965c7.188-10.64,15.376-20.551,24.425-29.599
		s18.961-17.233,29.601-24.422c1.098-0.742,2.209-1.466,3.323-2.187c-1.063-0.688-2.137-1.363-3.214-2.031
		c-0.199-0.123-0.396-0.249-0.594-0.371c-0.971-0.598-1.95-1.184-2.931-1.765c-0.335-0.199-0.67-0.398-1.007-0.595
		c-0.9-0.526-1.806-1.044-2.715-1.556c-0.439-0.248-0.879-0.494-1.321-0.739c-0.838-0.464-1.681-0.923-2.526-1.376
		c-0.538-0.288-1.078-0.571-1.618-0.854c-0.776-0.406-1.553-0.811-2.335-1.207c-0.647-0.328-1.299-0.648-1.95-0.969
		c-0.696-0.344-1.392-0.689-2.093-1.025c-0.805-0.385-1.616-0.758-2.426-1.133c-0.571-0.264-1.138-0.533-1.712-0.792
		c-1.293-0.583-2.594-1.151-3.902-1.707c-0.102-0.043-0.203-0.09-0.305-0.133c-11.964-5.06-24.522-8.989-37.542-11.653
		c-2.848-0.583-5.722-1.094-8.613-1.554C480.37,312.865,469.787,312,459,312s-21.37,0.865-31.694,2.509
		c-2.891,0.46-5.765,0.971-8.613,1.554c-13.02,2.664-25.578,6.593-37.542,11.653c-0.02,0.008-0.039,0.017-0.058,0.025
		c-1.286,0.544-2.562,1.107-3.834,1.678c-0.481,0.216-0.96,0.436-1.439,0.656c-0.804,0.368-1.603,0.743-2.401,1.121
		c-0.562,0.267-1.126,0.532-1.686,0.804c-1.013,0.492-2.021,0.994-3.024,1.503c-0.105,0.053-0.212,0.104-0.318,0.158
		c-0.249,4.083-0.39,8.194-0.39,12.339c0,13.807,1.399,27.288,4.063,40.307s6.593,25.578,11.653,37.542
		c5.061,11.964,11.252,23.333,18.44,33.973c7.188,10.64,15.374,20.551,24.422,29.599s18.959,17.233,29.599,24.421
		c6.466,4.368,13.205,8.362,20.179,11.964c-0.109-1.875-0.219-3.755-0.276-5.644C476.08,518.153,476.057,518.144,476.056,518.134z"
		/>
	<path fill="#FF0000" d="M507.798,403.751c-0.001,0.002-0.002,0.004-0.004,0.006c0.133-0.207,0.271-0.409,0.405-0.615
		C508.065,403.346,507.93,403.547,507.798,403.751z"/>
	<path fill="#FF0000" d="M503.925,410.021c-0.263,0.442-0.526,0.884-0.786,1.328c-0.002,0.004-0.005,0.008-0.007,0.012
		c0.263-0.45,0.529-0.897,0.795-1.345C503.927,410.018,503.926,410.02,503.925,410.021z"/>
	<path fill="#FF0000" d="M506.235,406.23c-0.046,0.074-0.092,0.147-0.138,0.221c0.048-0.077,0.095-0.153,0.143-0.229
		C506.239,406.225,506.237,406.228,506.235,406.23z"/>
	<path fill="#FF0000" d="M499.484,417.892c-0.043,0.082-0.086,0.164-0.13,0.246c0.044-0.083,0.088-0.168,0.133-0.251
		C499.486,417.889,499.485,417.89,499.484,417.892z"/>
	<path fill="#FF0000" d="M501.665,413.923c-0.206,0.366-0.411,0.732-0.615,1.1c0.209-0.376,0.419-0.752,0.63-1.127
		C501.676,413.905,501.67,413.914,501.665,413.923z"/>
</g>
<g id="Layer_1_copy">
	<path opacity="0.53" fill="#FF0000" d="M476,512c0,1.961,0.036,3.914,0.092,5.861C476.033,515.915,476,513.961,476,512z"/>
	<path opacity="0.53" fill="#FF0000" d="M476.356,523.807c-0.11-1.885-0.194-3.775-0.254-5.673
		C476.16,520.031,476.247,521.922,476.356,523.807L476.356,523.807z"/>
	<path fill="#FF0000" d="M763.937,305.693c-2.664-13.02-6.593-25.578-11.653-37.542s-11.252-23.333-18.44-33.973
		c-7.188-10.64-15.373-20.551-24.421-29.599c-9.049-9.048-18.959-17.233-29.6-24.422c-10.64-7.188-22.009-13.379-33.973-18.44
		c-11.964-5.06-24.523-8.989-37.542-11.653S581.807,146,568,146s-27.288,1.399-40.307,4.063s-25.578,6.593-37.542,11.653
		c-11.964,5.061-23.333,11.252-33.973,18.44c-10.64,7.188-20.551,15.374-29.599,24.422s-17.233,18.959-24.422,29.599
		c-7.188,10.64-13.379,22.009-18.44,33.973c-5.06,11.964-8.989,24.522-11.653,37.542c-1.864,9.111-3.094,18.452-3.673,27.968
		c4.172-2.124,8.426-4.111,12.761-5.944c11.964-5.06,24.522-8.989,37.542-11.653S445.193,312,459,312s27.288,1.399,40.307,4.063
		s25.578,6.593,37.542,11.653c10.729,4.538,20.975,9.993,30.651,16.253c9.676-6.26,19.922-11.715,30.651-16.253
		c11.964-5.06,24.522-8.989,37.542-11.653c13.02-2.664,26.5-4.063,40.307-4.063s27.287,1.399,40.308,4.063
		c13.02,2.664,25.578,6.593,37.542,11.653c4.693,1.985,9.292,4.15,13.794,6.476C767.079,324.492,765.836,314.974,763.937,305.693z"
		/>
	<path fill="#FF00FF" d="M476.056,518.134c-0.002-0.091-0.056-0.182-0.056-0.272c0-0.002,0-0.003,0-0.004
		c0-1.946-0.046-3.897-0.046-5.857c0-13.807,1.422-27.288,4.086-40.307s6.605-25.578,11.665-37.542
		c5.061-11.964,11.258-23.333,18.446-33.973c7.188-10.64,15.376-20.551,24.425-29.599s18.961-17.233,29.601-24.422
		c1.098-0.742,2.209-1.466,3.323-2.187c-9.676-6.26-19.921-11.715-30.65-16.253c-11.964-5.06-24.522-8.989-37.542-11.653
		S472.807,312,459,312s-27.288,1.399-40.307,4.063s-25.578,6.593-37.542,11.653c-4.334,1.833-8.588,3.82-12.761,5.944
		c-0.249,4.083-0.39,8.194-0.39,12.339c0,13.807,1.399,27.288,4.063,40.307s6.593,25.578,11.653,37.542
		c5.061,11.964,11.252,23.333,18.44,33.973c7.188,10.64,15.374,20.551,24.422,29.599s18.959,17.233,29.599,24.421
		c6.466,4.368,13.205,8.362,20.179,11.964c-0.109-1.875-0.219-3.755-0.276-5.644C476.08,518.153,476.057,518.144,476.056,518.134z"
		/>
	<path opacity="0.53" fill="#FFFF00" d="M476,512c0,1.96,0.036,3.911,0.092,5.857C476.036,515.911,476,513.959,476,512z"/>
	<path opacity="0.53" fill="#FFFF00" d="M476.104,518.163c0.057,1.889,0.144,3.769,0.253,5.644l0,0
		C476.247,521.932,476.161,520.051,476.104,518.163z"/>
	<path opacity="0.53" fill="#FF0000" d="M476.092,517.861c0.003,0.091,0.008,0.182,0.01,0.272c0,0.01,0.001,0.02,0.001,0.029
		c-0.003-0.103-0.009-0.204-0.012-0.306C476.092,517.858,476.092,517.859,476.092,517.861z"/>
	<path fill="#FFFF00" d="M767.644,334.192c-4.502-2.325-9.101-4.49-13.794-6.476c-11.964-5.06-24.522-8.989-37.542-11.653
		C703.287,313.399,689.807,312,676,312s-27.287,1.399-40.307,4.063c-13.02,2.664-25.578,6.593-37.542,11.653
		c-10.729,4.538-20.975,9.993-30.651,16.253c1.113,0.72,2.224,1.445,3.322,2.187c10.64,7.188,20.551,15.374,29.599,24.422
		s17.233,18.959,24.422,29.599c7.188,10.64,13.379,22.009,18.44,33.973s8.989,24.522,11.653,37.542S659,498.193,659,512
		c0,4.146-0.142,8.257-0.39,12.339c7.343-3.738,14.427-7.912,21.212-12.496c10.641-7.188,20.551-15.373,29.6-24.421
		c9.048-9.048,17.232-18.959,24.421-29.599c7.188-10.64,13.38-22.009,18.44-33.973s8.989-24.522,11.653-37.542S768,359.807,768,346
		C768,342.035,767.871,338.101,767.644,334.192z"/>
	<path fill="#FFFFFF" d="M654.937,471.693c-2.664-13.02-6.593-25.578-11.653-37.542s-11.252-23.333-18.44-33.973
		c-7.188-10.64-15.374-20.551-24.422-29.599s-18.959-17.233-29.599-24.422c-1.098-0.742-2.209-1.466-3.322-2.187
		c-1.113,0.72-2.224,1.445-3.322,2.187c-10.64,7.188-20.551,15.374-29.599,24.422s-17.233,18.959-24.422,29.599
		c-7.188,10.64-13.379,22.009-18.44,33.973c-5.06,11.964-8.989,24.522-11.653,37.542S476,498.193,476,512
		c0,1.959,0.033,3.912,0.092,5.857c0.003,0.102,0.008,0.203,0.012,0.306c0.061,1.888,0.144,3.769,0.253,5.644
		c4.502,2.326,9.101,4.491,13.794,6.477c11.964,5.061,24.522,8.989,37.542,11.653S554.193,546,568,546s27.288-1.399,40.307-4.063
		s25.579-6.593,37.542-11.653c4.335-1.833,8.588-3.82,12.761-5.944c0.248-4.082,0.39-8.193,0.39-12.339
		C659,498.193,657.601,484.712,654.937,471.693z"/>
	<path opacity="0.53" fill="#FF0000" d="M476.102,518.134c-0.002-0.091-0.007-0.182-0.01-0.272
		C476.095,517.952,476.1,518.043,476.102,518.134z"/>
	<path opacity="0.53" fill="#FF0000" d="M567.5,343.97L567.5,343.97c-1.113,0.72-2.224,1.445-3.322,2.187
		C565.276,345.415,566.387,344.69,567.5,343.97z"/>
</g>
</svg>
